<?xml version="1.0" encoding="UTF-8"?>
<svg width="23px" height="40px" viewBox="0 0 23 40" version="1.1" xmlns="http://www.w3.org/2000/svg" xmlns:xlink="http://www.w3.org/1999/xlink">
    <title>next copy</title>
    <path d="M1.50207232,38.689212 C3.86790683,37.5022575 6.27411394,35.6047452 8.53497969,33.4892208 C12.9194443,29.3712154 17.3523561,25.3178061 21.5914794,21.0140867 L21.6076284,20.9979376 C22.1970684,20.4004231 22.1889939,19.4395552 21.5914794,18.8501152 C20.5579407,17.8327256 19.5082531,16.815336 18.4424164,15.82217 C17.8045292,15.1439102 17.1747166,14.4656505 16.5368295,13.7954653 C12.4672712,9.54019301 8.33311667,5.34951686 3.95672656,1.44144894 C2.7132504,0.327165105 1.46977424,-0.383392699 1.04182465,0.222196339 C0.646173149,0.771263733 1.1387189,1.95821825 2.29337533,3.22591797 C4.3685271,5.49485823 6.44367887,7.79609658 8.63994845,9.96006807 C12.0231725,13.3029196 15.4952164,16.5569513 18.9268876,19.8432812 C12.5157183,25.2532099 6.81510682,31.5917085 0.726918354,37.4295868 C0.436235615,37.7041205 0.194,38.3500822 0.194,38.6326904 C0.194,39.1736833 0.791514518,39.0525655 1.50207232,38.689212 Z" id="Path" fill="#003863" fill-rule="nonzero" transform="translate(11.119354, 19.500511) scale(1, 1) translate(-11.119354, -19.500511) "></path>
    </svg>