<?xml version="1.0" encoding="UTF-8" standalone="no"?>
<!DOCTYPE svg PUBLIC "-//W3C//DTD SVG 1.1//EN" "http://www.w3.org/Graphics/SVG/1.1/DTD/svg11.dtd">
<svg width="100%" height="100%" viewBox="0 0 25 29" version="1.1" xmlns="http://www.w3.org/2000/svg" xmlns:xlink="http://www.w3.org/1999/xlink" xml:space="preserve" xmlns:serif="http://www.serif.com/" style="fill-rule:evenodd;clip-rule:evenodd;stroke-linecap:round;">
    <g id="Page-1">
        <g id="Path" transform="matrix(1,0,0,1,1,1.25)">
            <path d="M5.346,9.708L5.346,6.674C5.346,2.988 8.063,-0 11.413,-0C14.764,-0 17.481,2.988 17.481,6.674L17.481,9.708" style="fill:none;stroke:white;stroke-width:1px;"/>
        </g>
        <g id="Path1" serif:id="Path" transform="matrix(1,0,0,1,1,1.25)">
            <path d="M0.963,9.298C1.02,8.336 1.817,7.584 2.78,7.584L20.046,7.584C21.01,7.584 21.807,8.336 21.863,9.298L22.64,22.503C22.784,24.943 20.844,27 18.4,27L4.426,27C1.983,27 0.043,24.943 0.187,22.503L0.963,9.298Z" style="fill:none;stroke:white;stroke-width:1px;stroke-linecap:butt;"/>
        </g>
    </g>
</svg>
