<?xml version="1.0" encoding="UTF-8" standalone="no"?>
<!DOCTYPE svg PUBLIC "-//W3C//DTD SVG 1.1//EN" "http://www.w3.org/Graphics/SVG/1.1/DTD/svg11.dtd">
<svg width="100%" height="100%" viewBox="0 0 32 28" version="1.1" xmlns="http://www.w3.org/2000/svg" xmlns:xlink="http://www.w3.org/1999/xlink" xml:space="preserve" xmlns:serif="http://www.serif.com/" style="fill-rule:evenodd;clip-rule:evenodd;stroke-linejoin:round;stroke-miterlimit:2;">
    <g id="Page-1">
        <g id="Shape" transform="matrix(1,0,0,1,0,0.25)">
            <path d="M19.836,14.307C17.407,12.007 13.603,12.007 11.174,14.307L5.951,19.248C2.957,21.969 5.117,27.171 9.159,26.968C11.351,26.909 13.131,25.786 15.5,25.829C17.954,25.786 19.777,26.775 21.98,26.968C25.952,27.059 28.005,21.915 25.054,19.248L19.836,14.307ZM25.129,23.755C24.607,25.088 23.299,25.946 21.867,25.893C19.809,25.594 17.996,24.728 15.505,24.76C13.013,24.792 11.228,25.829 9.025,25.899C7.625,25.909 6.362,25.058 5.845,23.757C5.328,22.456 5.663,20.971 6.689,20.017L11.907,15.104C13.926,13.196 17.084,13.196 19.103,15.104L24.321,20.044C25.331,20.995 25.652,22.47 25.129,23.755Z" style="fill:white;fill-rule:nonzero;"/>
        </g>
        <g id="Shape1" serif:id="Shape" transform="matrix(1,0,0,1,0,0.25)">
            <path d="M28.829,7.047C26.786,6.646 25.225,8.918 24.819,10.875C23.6,16.932 29.47,18.087 30.844,12.211C31.406,9.693 30.518,7.421 28.829,7.047ZM29.802,11.982C28.657,16.526 24.99,15.724 25.861,11.11C26.791,6.977 30.641,6.924 29.802,11.982Z" style="fill:white;fill-rule:nonzero;"/>
        </g>
        <g id="Shape2" serif:id="Shape" transform="matrix(1,0,0,1,0,0.25)">
            <path d="M20.172,10.319C22.204,10.319 23.856,8.009 23.856,5.175C23.653,-1.647 16.692,-1.647 16.494,5.175C16.494,8.009 18.146,10.319 20.172,10.319ZM20.172,1.101C23.621,1.337 23.621,9.014 20.172,9.25C16.724,9.014 16.729,1.337 20.172,1.101Z" style="fill:white;fill-rule:nonzero;"/>
        </g>
        <g id="Shape3" serif:id="Shape" transform="matrix(1,0,0,1,0,0.25)">
            <path d="M6.191,10.875C5.79,8.918 4.224,6.646 2.181,7.047C-1.604,8.004 -0,16.072 3.7,16.093C5.796,16.024 6.763,13.591 6.191,10.875ZM3.946,14.997C1.31,15.393 -0.144,8.843 2.411,8.095C3.951,7.945 4.817,9.757 5.149,11.11C5.566,12.965 5.015,14.762 3.946,14.997Z" style="fill:white;fill-rule:nonzero;"/>
        </g>
        <g id="Shape4" serif:id="Shape" transform="matrix(1,0,0,1,0,0.25)">
            <path d="M10.837,10.319C12.864,10.319 14.516,8.009 14.516,5.175C14.318,-1.647 7.357,-1.647 7.154,5.175C7.154,8.009 8.806,10.319 10.837,10.319ZM10.837,1.101C14.286,1.337 14.281,9.014 10.837,9.25C7.389,9.014 7.389,1.337 10.837,1.101Z" style="fill:white;fill-rule:nonzero;"/>
        </g>
    </g>
</svg>
