<?xml version="1.0" encoding="UTF-8" standalone="no"?>
<!DOCTYPE svg PUBLIC "-//W3C//DTD SVG 1.1//EN" "http://www.w3.org/Graphics/SVG/1.1/DTD/svg11.dtd">
<svg width="100%" height="100%" viewBox="0 0 28 28" version="1.1" xmlns="http://www.w3.org/2000/svg" xmlns:xlink="http://www.w3.org/1999/xlink" xml:space="preserve" xmlns:serif="http://www.serif.com/" style="fill-rule:evenodd;clip-rule:evenodd;stroke-linejoin:round;stroke-miterlimit:2;">
    <g transform="matrix(1,0,0,1,0.5,0.25)">
        <g id="Page-1">
            <path id="Shape" d="M26.726,25.619L20.611,19.505C22.488,17.365 23.523,14.657 23.523,11.784C23.523,8.648 22.302,5.701 20.085,3.484C17.868,1.266 14.92,0.045 11.784,0.045C8.648,0.045 5.701,1.266 3.484,3.484C1.266,5.701 0.045,8.648 0.045,11.784C0.045,14.92 1.266,17.868 3.484,20.085C5.701,22.302 8.648,23.523 11.784,23.523C14.657,23.523 17.365,22.488 19.505,20.611L25.619,26.726C25.772,26.878 25.972,26.955 26.172,26.955C26.373,26.955 26.573,26.878 26.726,26.726C27.031,26.42 27.031,25.925 26.726,25.619ZM4.59,18.978C2.669,17.057 1.61,14.502 1.61,11.784C1.61,9.067 2.669,6.512 4.59,4.59C6.512,2.669 9.067,1.61 11.784,1.61C14.502,1.61 17.057,2.669 18.978,4.59C20.9,6.512 21.958,9.067 21.958,11.784C21.958,14.502 20.9,17.057 18.978,18.978C17.057,20.9 14.502,21.958 11.784,21.958C9.067,21.958 6.512,20.9 4.59,18.978Z" style="fill:white;fill-rule:nonzero;"/>
        </g>
    </g>
</svg>
