<?xml version="1.0" encoding="UTF-8"?>
<svg width="25px" height="29px" viewBox="0 0 25 29" version="1.1" xmlns="http://www.w3.org/2000/svg" xmlns:xlink="http://www.w3.org/1999/xlink">
    <title>card</title>
    <defs>
        <filter id="filter-1">
            <feColorMatrix in="SourceGraphic" type="matrix" values="0 0 0 0 1.000000 0 0 0 0 1.000000 0 0 0 0 1.000000 0 0 0 1.000000 0"></feColorMatrix>
        </filter>
    </defs>
    <g id="Page-1" stroke="none" stroke-width="1" fill="none" fill-rule="evenodd">
        <g id="Group-4" transform="translate(-1246.000000, -31.000000)" filter="url(#filter-1)">
            <g transform="translate(1247.000000, 32.250000)" id="card" stroke="#000000">
                <path d="M5.34599725,9.70786517 L5.34599725,6.6741573 C5.34599725,2.9881173 8.06250062,-5.32907052e-15 11.413413,-5.32907052e-15 C14.7643253,-5.32907052e-15 17.4808287,2.9881173 17.4808287,6.6741573 L17.4808287,9.70786517" id="Path" stroke-linecap="round"></path>
                <path d="M0.963381519,9.29758652 C1.01997837,8.33553708 1.81670287,7.58426966 2.78046332,7.58426966 L20.0463748,7.58426966 C21.0101231,7.58426966 21.8068961,8.33553708 21.8634444,9.29758652 L22.6403164,22.5034382 C22.7837501,24.9429034 20.8441186,27 18.4004062,27 L4.42641972,27 C1.98270736,27 0.043063766,24.9429034 0.186570283,22.5034382 L0.963381519,9.29758652 Z" id="Path"></path>
            </g>
        </g>
    </g>
</svg>