<?xml version="1.0" encoding="UTF-8"?>
<svg width="21px" height="21px" viewBox="0 0 21 21" version="1.1" xmlns="http://www.w3.org/2000/svg" xmlns:xlink="http://www.w3.org/1999/xlink">
    <title>check-mark</title>
    <defs>
        <filter id="filter-1">
            <feColorMatrix in="SourceGraphic" type="matrix" values="0 0 0 0 0.000000 0 0 0 0 0.219608 0 0 0 0 0.388235 0 0 0 1.000000 0"></feColorMatrix>
        </filter>
    </defs>
    <g id="Page-1" stroke="none" stroke-width="1" fill="none" fill-rule="evenodd">
        <g id="HD_HOME" transform="translate(-387.000000, -4502.000000)">
            <g id="check-mark" transform="translate(380.000000, 4495.000000)" filter="url(#filter-1)">
                <g transform="translate(7.000000, 7.500000)">
                    <path d="M2.12726266,9.13987734 C1.30564327,9.14218063 0.558459881,9.61640111 0.206608892,10.3588731 C-0.145242097,11.101345 -0.039141186,11.9799295 0.479343964,12.6172967 L5.89495286,19.2514063 C6.28671689,19.7378608 6.88920392,20.0052931 7.51277238,19.9695251 C8.17010969,19.9342225 8.76357035,19.582587 9.14194077,19.0044226 L20.3915416,0.886961276 C20.3933808,0.883955844 20.3953096,0.880950412 20.3972833,0.877989837 C20.5028323,0.715920799 20.4686063,0.394743298 20.2507349,0.192975644 C20.1297651,0.0809862068 19.9679043,0.0239469784 19.80345,0.035353963 C19.6389958,0.0467609476 19.4865598,0.125600643 19.3822099,0.253218854 C19.3781728,0.25818305 19.374016,0.263072484 19.3697396,0.267887156 L8.02436867,13.086458 C7.93716808,13.1849908 7.81411269,13.2444617 7.68272719,13.2515684 C7.55134168,13.2586751 7.42258941,13.2128246 7.32526932,13.1242726 L3.55995654,9.69781111 C3.16889539,9.33932914 2.65776995,9.14028164 2.12726266,9.13987734 L2.12726266,9.13987734 Z" id="Path" fill="#000000" fill-rule="nonzero"></path>
                </g>
            </g>
        </g>
    </g>
</svg>