<?xml version="1.0" encoding="UTF-8"?>
<svg width="75px" height="75px" viewBox="0 0 75 75" version="1.1" xmlns="http://www.w3.org/2000/svg" xmlns:xlink="http://www.w3.org/1999/xlink">
    <title>Group 8 Copy 2</title>
    <defs>
        <filter id="filter-1">
            <feColorMatrix in="SourceGraphic" type="matrix" values="0 0 0 0 0.000000 0 0 0 0 0.219608 0 0 0 0 0.388235 0 0 0 1.000000 0"></feColorMatrix>
        </filter>
    </defs>
    <g id="Page-1" stroke="none" stroke-width="1" fill="none" fill-rule="evenodd">
        <g id="HD_Koncepcjazywienia" transform="translate(-586.000000, -2507.000000)">
            <g id="Group-8-Copy-2" transform="translate(586.000000, 2507.000000)">
                <circle id="Oval-Copy" fill="#FFFFFF" cx="37.5" cy="37.3607479" r="37.3607479"></circle>
                <g filter="url(#filter-1)" id="yeast">
                    <g transform="translate(19.500000, 19.360748)">
                        <path d="M9.3282069,29.5971034 L9.25117241,30.7557931 C9.41531034,30.7666897 9.58234483,30.7722759 9.74758621,30.7722759 L10.4508966,30.7722759 L10.4508966,29.6110345 L9.74765517,29.6110345 C9.608,29.6109655 9.46682759,29.6063448 9.3282069,29.5971034 L9.3282069,29.5971034 Z" id="Path" fill="#000000" fill-rule="nonzero"></path>
                        <path d="M3.48365517,23.3469655 C3.48365517,22.9535862 3.52110345,22.5583448 3.59482759,22.171931 L2.45413793,21.9542069 C2.36675862,22.4121379 2.32241379,22.8807586 2.32241379,23.3469655 C2.32241379,25.0184828 2.89634483,26.6593103 3.93848276,27.9671034 C4.96393103,29.254 6.40324138,30.1757241 7.99117241,30.5623448 L8.26586207,29.434 C5.45013793,28.7485517 3.48365517,26.2455172 3.48365517,23.3469655 L3.48365517,23.3469655 Z" id="Path" fill="#000000" fill-rule="nonzero"></path>
                        <path d="M33.6264138,30.2404138 C33.4758621,29.4306897 32.9877931,28.7382759 32.3146207,28.3142759 C33.2062069,26.8135172 33.6752414,25.1101379 33.6752414,23.3469655 C33.6752414,22.4412414 33.5491034,21.5402069 33.3002069,20.6690345 L32.5108276,17.906069 C32.3789655,15.413931 26.9569655,14.2844138 24.345931,13.8848276 C23.813931,13.2084828 22.9884138,12.7733103 22.0630345,12.7733103 L21.8702069,12.7733103 C21.3489655,11.7164138 20.2695172,11.0315172 19.0657931,11.0315172 L18.7551724,11.0315172 L18.0693793,10.5742069 C17.3784138,10.1137241 16.5744138,9.87027586 15.7442069,9.87027586 L15.7337931,9.87027586 C15.1431034,9.87027586 14.5757931,9.99551724 14.0593793,10.221931 L10.9094483,1.57951724 C10.5903448,0.634344828 9.70724138,0 8.70924138,0 C8.45965517,0 8.21248276,0.0402068966 7.97455172,0.119448276 C6.76006897,0.524344828 6.10110345,1.84213793 6.50586207,3.05696552 L10.2607586,13.3596552 C10.056069,13.4965517 9.86703448,13.6548276 9.69606897,13.8307586 C7.00137931,14.2167586 1.29951724,15.3369655 1.16462069,17.905931 L0.375034483,20.6691724 C0.126137931,21.5402759 0,22.4412414 0,23.3469655 C0,28.7218621 4.37275862,33.0946207 9.74765517,33.0946207 L15.0957931,33.0946207 C15.0957931,34.6953793 16.398069,35.9976552 17.9988276,35.9976552 L33.0946207,35.9976552 C34.6953793,35.9976552 35.9976552,34.6953793 35.9976552,33.0946207 C35.9976552,31.6755172 34.974069,30.4909655 33.6264138,30.2404138 L33.6264138,30.2404138 Z M2.65082759,17.3714483 C3.82744828,18.3849655 5.93558621,19.0305517 7.59537931,19.406 C10.2426897,20.0048276 13.4385517,20.3213103 16.8376552,20.3213103 C20.2367586,20.3213103 23.4326207,20.0048276 26.079931,19.406069 C27.7413103,19.0302759 29.851931,18.3837931 31.0278621,17.3684828 C31.2426897,17.5889655 31.3528276,17.8021379 31.3528276,17.9988966 C31.3528276,18.5702069 30.3074483,19.5188276 27.3610345,20.3121379 C24.5576552,21.0668276 20.8203448,21.4825517 16.8376552,21.4825517 C12.8549655,21.4825517 9.11765517,21.0668276 6.31427586,20.3121379 C3.36786207,19.5188966 2.32248273,18.5702759 2.32248273,17.9988966 C2.32248273,17.8035172 2.43710345,17.5902759 2.65082759,17.3714483 L2.65082759,17.3714483 Z M30.0332414,16.6762759 C29.432069,17.1094483 28.5010345,17.5228276 27.3225517,17.8801379 C26.808,16.8035862 25.9826207,15.9127586 24.944,15.3172414 C24.9372414,15.2627586 24.9284828,15.2088276 24.9187586,15.1552414 C27.2477241,15.5615862 28.9623448,16.1137241 30.0332414,16.6762759 L30.0332414,16.6762759 Z M15.7442759,11.0314483 C16.3445517,11.0314483 16.9257931,11.2075172 17.4253793,11.5404828 L18.4037241,12.1926897 L19.065931,12.1926897 C19.9138621,12.1926897 20.6636552,12.7331034 20.9317241,13.5374483 L21.064,13.9344828 L22.0631724,13.9344828 C23.0235862,13.9344828 23.8049655,14.715931 23.8049655,15.6762759 L23.8049655,16.0351034 L24.126,16.1955862 C25.008,16.6366207 25.7196552,17.3325517 26.1783448,18.190069 C26.0617241,18.2182759 25.9437931,18.246069 25.8237241,18.2733103 C23.2958621,18.8450345 20.1045517,19.16 16.8376552,19.16 C13.5707586,19.16 10.3795172,18.8451034 7.85165517,18.2733103 C7.80524138,18.2627586 7.75951724,18.2521379 7.71358621,18.2414483 C7.9857931,17.5581379 8.57089655,17.0351724 9.30731034,16.8511034 L9.87041379,16.7101379 L9.87041379,16.2568966 C9.87041379,14.9762759 10.9122759,13.9344828 12.1928276,13.9344828 L12.6688276,13.9344828 L12.7621379,13.4676552 C13.0444828,12.056069 14.2942069,11.0314483 15.733931,11.0314483 L15.7442759,11.0314483 L15.7442759,11.0314483 Z M7.60524138,2.68303448 C7.40765517,2.07737931 7.73689655,1.42268966 8.34165517,1.22096552 C8.46089655,1.18124138 8.58455172,1.16117241 8.70917241,1.16117241 C9.20951724,1.16117241 9.65213793,1.4802069 9.81055172,1.95510345 L13.0511034,10.8464828 C12.446069,11.3511724 11.9811034,12.0244138 11.7355862,12.8031724 C11.5952414,12.8216552 11.4576552,12.8488276 11.3230345,12.8835172 L7.60524138,2.68303448 Z M8.89627586,15.1309655 C8.8217931,15.3484828 8.7677931,15.5753793 8.73772414,15.8097241 C7.7222069,16.1575862 6.93468966,16.9490345 6.58468966,17.9490345 C5.29531034,17.5762759 4.28089655,17.1370345 3.64089655,16.6754483 C3.82896552,16.5753103 4.03468966,16.4766897 4.25703448,16.3808966 C5.42896552,15.8761379 7.01786207,15.4494483 8.89627586,15.1309655 L8.89627586,15.1309655 Z M15.3377241,31.9334483 L9.74772414,31.9334483 C5.01310345,31.9334483 1.16124138,28.0816552 1.16124138,23.3469655 C1.16124138,22.5490345 1.27234483,21.7553793 1.49158621,20.988069 L1.91082759,19.5207586 C2.69103448,20.2633103 4.07124138,20.9106897 6.01234483,21.4333103 C8.91137931,22.2138621 12.7558621,22.6437241 16.8376552,22.6437241 C20.9194483,22.6437241 24.7638621,22.2138621 27.6629655,21.4333793 C29.604069,20.9107586 30.9842759,20.2633103 31.7644828,19.5207586 L32.1837241,20.988 C32.4029655,21.7553793 32.514069,22.5490345 32.514069,23.3469655 C32.514069,24.9711724 32.0623448,26.5373793 31.2058621,27.9021379 C31.0643448,27.8808966 30.9195862,27.8691724 30.7722069,27.8691724 C29.6056552,27.8691724 28.5604138,28.5797241 28.1077241,29.6208966 C27.7653103,29.5928276 27.4195862,29.626 27.0912414,29.7173103 C26.7302069,28.7874483 25.9086207,28.1009655 24.9173103,27.9177931 C24.6666207,26.5703448 23.4821379,25.5468276 22.0631034,25.5468276 C20.643931,25.5468276 19.4594483,26.5704138 19.2088966,27.918069 C17.9731724,28.1477931 17.0098621,29.1628966 16.8584138,30.424069 C16.1697931,30.7173103 15.6301379,31.2629655 15.3377241,31.9334483 L15.3377241,31.9334483 Z M33.0946207,34.8364828 L17.9988276,34.8364828 C17.0384138,34.8364828 16.2570345,34.0550345 16.2570345,33.0946897 C16.2570345,32.2986897 16.7946207,31.6048276 17.5644138,31.4073793 L18.0154483,31.2915862 L17.9998621,30.8095862 C17.9994483,30.7971724 17.9988276,30.7847586 17.9988276,30.7722069 C17.9988276,29.8117931 18.7802759,29.0304138 19.7406207,29.0304138 L20.3212414,29.0304138 L20.3212414,28.4497931 C20.3212414,27.4893793 21.1026897,26.708 22.0630345,26.708 C23.0234483,26.708 23.8048276,27.4894483 23.8048276,28.4497931 L23.8048276,29.0304138 L24.3854483,29.0304138 C25.2735862,29.0304138 26.0175172,29.6948966 26.116,30.5761379 L26.2154483,31.4666207 L26.9875862,31.012 C27.3915172,30.7743448 27.888069,30.7092414 28.3444828,30.8384828 L28.9394483,31.0067586 L29.07,30.4023448 C29.2417241,29.6073793 29.9575172,29.0303448 30.7721379,29.0303448 C31.7325517,29.0303448 32.513931,29.8117931 32.513931,30.7721379 L32.513931,31.3527586 L33.0945517,31.3527586 C34.0549655,31.3527586 34.8363448,32.1342069 34.8363448,33.0945517 C34.8363448,34.0550345 34.0550345,34.8364828 33.0946207,34.8364828 L33.0946207,34.8364828 Z" id="Shape" fill="#000000" fill-rule="nonzero"></path>
                        <circle id="Oval" fill="#000000" fill-rule="nonzero" cx="15.0957931" cy="12.7733793" r="1"></circle>
                        <circle id="Oval" fill="#000000" fill-rule="nonzero" cx="12.1927586" cy="16.2570345" r="1"></circle>
                        <circle id="Oval" fill="#000000" fill-rule="nonzero" cx="19.7406897" cy="14.5151724" r="1"></circle>
                        <circle id="Oval" fill="#000000" fill-rule="nonzero" cx="17.9988276" cy="17.4182069" r="1"></circle>
                        <circle id="Oval" fill="#000000" fill-rule="nonzero" cx="15.0957931" cy="15.6764138" r="1"></circle>
                        <circle id="Oval" fill="#000000" fill-rule="nonzero" cx="22.0631034" cy="28.4497931" r="1"></circle>
                        <circle id="Oval" fill="#000000" fill-rule="nonzero" cx="18.5794483" cy="33.0946207" r="1"></circle>
                        <circle id="Oval" fill="#000000" fill-rule="nonzero" cx="22.0631034" cy="31.3528276" r="1"></circle>
                        <circle id="Oval" fill="#000000" fill-rule="nonzero" cx="24.3855172" cy="30.7722069" r="1"></circle>
                        <circle id="Oval" fill="#000000" fill-rule="nonzero" cx="30.7722069" cy="30.7722069" r="1"></circle>
                        <circle id="Oval" fill="#000000" fill-rule="nonzero" cx="27.8691724" cy="33.0946207" r="1"></circle>
                        <circle id="Oval" fill="#000000" fill-rule="nonzero" cx="22.0631034" cy="16.8376552" r="1"></circle>
                    </g>
                </g>
            </g>
        </g>
    </g>
</svg>