<?xml version="1.0" encoding="UTF-8"?>
<svg width="82px" height="82px" viewBox="0 0 82 82" version="1.1" xmlns="http://www.w3.org/2000/svg" xmlns:xlink="http://www.w3.org/1999/xlink">
    <title>Group 9</title>
    <defs>
        <filter id="filter-1">
            <feColorMatrix in="SourceGraphic" type="matrix" values="0 0 0 0 0.000000 0 0 0 0 0.219608 0 0 0 0 0.388235 0 0 0 1.000000 0"></feColorMatrix>
        </filter>
    </defs>
    <g id="Page-1" stroke="none" stroke-width="1" fill="none" fill-rule="evenodd">
        <g id="HD_HOME" transform="translate(-722.000000, -1785.000000)">
            <g id="Group-13" transform="translate(0.000000, 1398.000000)">
                <g id="Group-18" transform="translate(379.000000, 279.500000)">
                    <g id="Group-21" transform="translate(343.500000, 102.575928)">
                        <g id="Group-9" transform="translate(0.000000, 5.500000)">
                            <circle id="Oval-Copy-3" fill="#FFFFFF" cx="40.4241326" cy="40.4241326" r="40.4241326"></circle>
                            <g filter="url(#filter-1)" id="seeding">
                                <g transform="translate(14.924133, 15.424133)">
                                    <path d="M24.6875,18.3690848 C25.1581473,18.553683 25.6198661,18.1018973 25.4638393,17.6212054 C24.3930804,14.3215402 20.516183,13.090625 16.9121652,16.0180804 C15.0164063,17.5581473 14.3040179,17.8853795 14.2860491,17.8936384 C15.5358259,19.143192 16.9636161,23.3362723 20.0795759,23.8 C23.5120536,24.4223214 26.55,21.0453125 24.0645089,19.5 C22.4299107,18.483817 20.5053571,17.8935268 18.4424107,17.8935268 C20.6051339,17.4060268 22.7641741,17.615067 24.6875,18.3690848 Z" id="Path" fill="#000000" fill-rule="nonzero"></path>
                                    <path d="M40.2303571,16.0178571 C34.0091518,10.9645089 30.0416295,18.9337054 32.5078125,18.14375 C34.259375,17.5827009 36.1742187,17.4604911 38.0949777,17.8934152 C34.840625,17.8934152 31.8407366,19.3848214 29.840625,21.8123884 C30.0049107,17.997433 30.2533482,15.6094866 30.5414062,13.8331473 C32.2037946,13.7760045 34.4194196,12.4335938 35.6361607,10.0845982 C37.733817,6.33058036 36.7610491,2.48147321 36.4479911,0.0526785714 C34.8089286,1.64877232 27.6489955,-0.221428571 24.8106027,4.64241071 C23.556808,6.79095982 23.9212054,9.40546875 25.2401786,11.31875 C25.6577009,11.924442 26.6560268,11.633817 26.6844866,10.8987723 C26.8083705,7.70122768 28.3997768,5.28537946 31.3665179,3.94732143 C30.0352679,5.67220982 29.1611607,7.60334821 28.7095982,9.59933036 C28.0077009,12.7085938 27.2745536,14.7482143 27.0053571,24.6583705 C26.9780134,25.6633929 27.7921875,26.4953125 28.7975446,26.4828424 C29.5253348,26.4735491 30.1487723,26.0117188 30.428683,25.3398438 C30.8543527,24.3179688 31.5472098,23.2603795 32.6746652,22.2914063 C33.7460937,23.4756696 35.3764509,24.1058036 37.0633929,23.7998884 C40.1660714,23.3381696 41.6140625,19.1359375 42.856808,17.8933036 C42.8386161,17.8852679 42.1261161,17.5580357 40.2303571,16.0178571 Z" id="Path" fill="#000000" fill-rule="nonzero"></path>
                                    <path d="M49.3756696,28.0848514 C47.4308036,26.7653201 45.3140625,27.7056103 44.3419643,28.2668826 L32.1428571,37.195454 L25,37.1970165 L23.2142857,35.4113022 L29.7741071,35.4113022 C31.7469866,35.4113022 33.9564732,34.1262576 33.9564732,31.8390924 C33.9564732,29.4108558 31.7469866,28.2668826 29.7741071,28.2668826 L27.3158482,28.2668826 C25.4897321,28.2668826 23.355692,28.4297174 21.8510045,27.6242487 C20.4214286,26.8967933 18.7752232,26.4828424 17.0179688,26.4828424 C14.0671875,26.4828424 11.4262277,27.6591817 9.61651786,29.5143156 L2.99626455e-14,38.9811683 L10.7142857,49.695454 L14.2857143,44.3383112 L31.1625,44.3383112 C32.9623884,44.3383112 34.6997768,43.6780433 36.0453125,42.4827308 L49.4977679,30.532396 C50.2456473,29.8681103 50.2034598,28.6465701 49.3756696,28.0848514 Z" id="Path" fill="#000000" fill-rule="nonzero"></path>
                                </g>
                            </g>
                        </g>
                    </g>
                </g>
            </g>
        </g>
    </g>
</svg>