<?xml version="1.0" encoding="UTF-8"?>
<svg width="83px" height="82px" viewBox="0 0 83 82" version="1.1" xmlns="http://www.w3.org/2000/svg" xmlns:xlink="http://www.w3.org/1999/xlink">
    <title>Group 7</title>
    <g id="Page-1" stroke="none" stroke-width="1" fill="none" fill-rule="evenodd">
        <g id="HD_HOME" transform="translate(-721.000000, -1678.000000)">
            <g id="Group-13" transform="translate(0.000000, 1398.000000)">
                <g id="Group-18" transform="translate(379.000000, 279.500000)">
                    <g id="Group-7" transform="translate(342.500000, 0.500000)">
                        <circle id="Oval-Copy-4" fill="#FFFFFF" cx="40.8482652" cy="40.9241326" r="40.4241326"></circle>
                        <path d="M26.1882652,47.6681326 C32.9882652,47.6681326 37.7482652,43.9081326 37.7482652,37.7081326 L37.7482652,37.6281326 C37.7482652,31.5481326 33.1882652,28.7481326 28.1482652,28.7481326 C26.2682652,28.7481326 24.9482652,29.1481326 23.6682652,29.7481326 L23.9082652,25.5081326 L36.5082652,25.5081326 L36.5082652,19.1081326 L17.7882652,19.1081326 L16.9882652,33.2681326 L21.5882652,35.8681326 C22.9082652,35.0681326 24.3482652,34.4681326 26.0682652,34.4681326 C28.5082652,34.4681326 30.1882652,35.6681326 30.1882652,37.7081326 L30.1882652,37.7881326 C30.1882652,39.7881326 28.6682652,41.0681326 26.1082652,41.0681326 C23.7082652,41.0681326 21.5482652,39.9481326 19.3082652,38.0281326 L14.8682652,43.2281326 C17.7882652,45.9481326 21.2282652,47.6681326 26.1882652,47.6681326 Z M53.8282652,47.6681326 C61.8282652,47.6681326 66.8282652,41.0281326 66.8282652,33.1081326 L66.8282652,33.0281326 C66.8282652,25.1081326 61.8682652,18.5481326 53.9082652,18.5481326 C45.9482652,18.5481326 40.9082652,25.1881326 40.9082652,33.1081326 L40.9082652,33.1881326 C40.9082652,41.1081326 45.8682652,47.6681326 53.8282652,47.6681326 Z M53.9082652,40.7881326 C50.7882652,40.7881326 48.7082652,37.5881326 48.7082652,33.1081326 L48.7082652,33.0281326 C48.7082652,28.5481326 50.7482652,25.3881326 53.8282652,25.3881326 C56.9482652,25.3881326 59.0282652,28.6281326 59.0282652,33.1081326 L59.0282652,33.1881326 C59.0282652,37.6281326 57.0282652,40.7881326 53.9082652,40.7881326 Z M34.5402652,63.1081326 L34.5402652,51.4281326 L31.5162652,51.4281326 L31.5162652,63.1081326 L34.5402652,63.1081326 Z M38.7322652,63.3001326 C39.8682652,63.3001326 40.6842652,62.8521326 41.2922652,62.1961326 L41.2922652,63.1081326 L44.2842652,63.1081326 L44.2842652,58.1321326 C44.2842652,56.9161326 44.0122652,56.0201326 43.3562652,55.3801326 C42.6682652,54.6921326 41.6122652,54.3241326 40.0602652,54.3241326 C38.5722652,54.3241326 37.5322652,54.5961326 36.5562652,54.9961326 L37.1802652,57.1241326 C37.9642652,56.8361326 38.6682652,56.6441326 39.5802652,56.6441326 C40.7482652,56.6441326 41.3082652,57.1561326 41.3082652,58.0681326 L41.3082652,58.2121326 C40.8122652,58.0201326 40.0282652,57.8761326 39.2282652,57.8761326 C37.1962652,57.8761326 35.8362652,58.7881326 35.8362652,60.5961326 L35.8362652,60.6281326 C35.8362652,62.3401326 37.0842652,63.3001326 38.7322652,63.3001326 Z M39.8202652,61.3961326 C39.1962652,61.3961326 38.7482652,61.0441326 38.7482652,60.4521326 L38.7482652,60.4201326 C38.7482652,59.7641326 39.2602652,59.3481326 40.1402652,59.3481326 C40.5882652,59.3481326 41.0202652,59.4441326 41.3402652,59.5721326 L41.3402652,59.9721326 C41.3402652,60.8361326 40.7162652,61.3961326 39.8202652,61.3961326 Z M49.2762652,63.2841326 C50.1242652,63.2841326 50.8442652,63.0761326 51.3882652,62.7721326 L51.3882652,60.4041326 C51.0202652,60.5801326 50.6362652,60.6921326 50.2362652,60.6921326 C49.6762652,60.6921326 49.4042652,60.4361326 49.4042652,59.8281326 L49.4042652,56.8841326 L51.4202652,56.8841326 L51.4202652,54.4521326 L49.4042652,54.4521326 L49.4042652,52.2601326 L46.3802652,52.2601326 L46.3802652,54.4521326 L45.3562652,54.4521326 L45.3562652,56.8841326 L46.3802652,56.8841326 L46.3802652,60.4201326 C46.3802652,62.4841326 47.4522652,63.2841326 49.2762652,63.2841326 Z" id="50lat" fill="#003863" fill-rule="nonzero"></path>
                    </g>
                </g>
            </g>
        </g>
    </g>
</svg>