<?xml version="1.0" encoding="UTF-8"?>
<svg width="81px" height="82px" viewBox="0 0 81 82" version="1.1" xmlns="http://www.w3.org/2000/svg" xmlns:xlink="http://www.w3.org/1999/xlink">
    <title>Group 12</title>
    <defs>
        <filter id="filter-1">
            <feColorMatrix in="SourceGraphic" type="matrix" values="0 0 0 0 0.000000 0 0 0 0 0.219608 0 0 0 0 0.388235 0 0 0 1.000000 0"></feColorMatrix>
        </filter>
    </defs>
    <g id="Page-1" stroke="none" stroke-width="1" fill="none" fill-rule="evenodd">
        <g id="HD_HOME" transform="translate(-379.000000, -1784.000000)">
            <g id="Group-13" transform="translate(0.000000, 1398.000000)">
                <g id="Group-18" transform="translate(379.000000, 279.500000)">
                    <g id="Group-12" transform="translate(0.000000, 106.575928)">
                        <circle id="Oval-Copy" fill="#FFFFFF" cx="40.4241326" cy="40.4241326" r="40.4241326"></circle>
                        <g filter="url(#filter-1)" id="leaves-of-a-plant">
                            <g transform="translate(15.424133, 15.424133)">
                                <path d="M30.3546875,24.9734375 C29.265625,26.015625 28.1171875,27.4265625 27.0734375,29.31875 C26.0421875,25.5953125 24.7421875,22.865625 23.428125,20.8671875 C29.4578125,0.721875 0.071875,0 0.071875,0 C0.071875,0 0.9296875,25.178125 16.2765625,24.6 C16.2453125,22.9140625 15.984375,21.209375 15.61875,19.6109375 C15.3796875,18.56875 15.0953125,17.575 14.8015625,16.6578125 C13.8203125,13.615625 12.7125,11.45625 12.7125,11.45625 C13.83125,12.959375 14.821875,14.39375 15.696875,15.7421875 C18.7078125,20.375 20.3515625,23.978125 21.115625,25.88125 C23.0015625,29.9328125 24.6953125,36.596875 24.6953125,47.4875 C24.6953125,48.7203125 25.696875,49.71875 26.925,49.71875 C28.15625,49.71875 29.15625,48.7203125 29.15625,47.4875 C29.15625,43.9578125 28.9859375,40.8171875 28.678125,38.015625 C29.3890625,34.596875 30.4625,32.1703125 31.5734375,30.4515625 C32.303125,29.059375 33.6484375,26.675 35.4609375,24.240625 C37.075,22.075 39.065625,19.86875 41.3171875,18.29375 C41.3171875,18.29375 36.7,23.4046875 36.4015625,28.4078125 C49.1546875,29.0734375 49.65,9.009375 49.65,9.009375 C49.65,9.009375 26.3109375,9.80625 30.3546875,24.9734375 Z" id="Path" fill="#000000" fill-rule="nonzero"></path>
                            </g>
                        </g>
                    </g>
                </g>
            </g>
        </g>
    </g>
</svg>