<?xml version="1.0" encoding="UTF-8"?>
<svg width="81px" height="81px" viewBox="0 0 81 81" version="1.1" xmlns="http://www.w3.org/2000/svg" xmlns:xlink="http://www.w3.org/1999/xlink">
    <title>Group 17</title>
    <defs>
        <filter id="filter-1">
            <feColorMatrix in="SourceGraphic" type="matrix" values="0 0 0 0 0.000000 0 0 0 0 0.219608 0 0 0 0 0.388235 0 0 0 1.000000 0"></feColorMatrix>
        </filter>
    </defs>
    <g id="Page-1" stroke="none" stroke-width="1" fill="none" fill-rule="evenodd">
        <g id="HD_HOME" transform="translate(-379.000000, -1678.000000)">
            <g id="Group-13" transform="translate(0.000000, 1398.000000)">
                <g id="Group-18" transform="translate(379.000000, 279.500000)">
                    <g id="Group-17" transform="translate(0.000000, 0.500000)">
                        <circle id="Oval" fill="#FFFFFF" cx="40.4241326" cy="40.4241326" r="40.4241326"></circle>
                        <g filter="url(#filter-1)" id="germany-(1)">
                            <g transform="translate(17.924133, 15.924133)">
                                <path d="M44.1840909,23.6409091 C42.275,21.2431818 43.0318182,18.3954545 42.4409091,15.8159091 C42.1204545,14.4318182 39.9590909,13.8318182 40.6227273,12.8068182 C43.9613636,7.67272727 37.1681818,5.73636364 37.3,1.66818182 C37.3068182,1.40227273 36.3931818,0.759090909 35.8613636,1.3 C33.6204545,3.57045455 30.2340909,3.38409091 27.7840909,5.14318182 C26.7181818,5.90227273 25.7295455,5.85 24.5636364,5.30227273 C25.0954545,4.29090909 25.5909091,3.35454545 26.0840909,2.41363636 C24.1818182,3.86136364 21.6681818,3.78181818 20.8886364,2.36363636 C18.9090909,-1.25681818 15.8840909,0.465909091 12.9045455,0.0840909091 C15.4068182,1.19090909 13.0204545,2.88181818 13.7636364,4.02954545 C14.4022727,5.01590909 15.0272727,5.93181818 13.6022727,6.425 C12.4545455,6.82954545 12.7318182,9.28636364 10.2159091,7.99772727 C7.16590909,6.44090909 5.86818182,7.81363636 6.03181818,11.2727273 C6.09318182,12.55 5.94090909,13.9068182 4.68863636,14.6113636 C4.12045455,14.9386364 3.74772727,15.0272727 3.99545455,15.7931818 C4.77045455,18.2090909 4.25227273,19.1863636 1.88181818,19.6340909 C1.175,19.7727273 0.0113636364,20.025 0.372727273,20.5227273 C2.26136364,23.1204545 -1.525,26.3386364 1.41136364,28.7159091 C1.74772727,28.9863636 1.67727273,29.4318182 1.6,29.9454545 C0.886363636,34.6454545 2.52045455,36.7863636 7.25454545,37.6045455 C8.275,37.7795455 9.27272727,38.1113636 10.7545455,38.4863636 C8.9,40.4068182 8.425,42.5272727 8.02272727,44.7136364 C7.63181818,46.8340909 8.54318182,47.7295455 10.4477273,47.0340909 C13.3204545,45.9909091 15.9772727,46.9159091 18.7318182,47.3477273 C19.7681818,47.5113636 20.8295455,48.8386364 20.9545455,48.675 C23.0454545,45.9840909 26.1477273,49.1681818 28.4840909,47.2340909 C29.6045455,46.3113636 31.5727273,46.2386364 33.1340909,47.0181818 C34.9954545,47.9454545 35.1863636,47.25 34.5272727,45.6840909 C33.8954545,44.1704545 33.7909091,43.3840909 35.7522727,42.4159091 C39.6022727,40.5045455 39.4659091,40.1090909 35.9227273,37.3613636 C35.1022727,36.7340909 34.1272727,36.2613636 33.4181818,35.5227273 C31.9522727,33.9931818 30.4477273,31.2386364 31.9159091,30.1931818 C34.7818182,28.1522727 38.4954545,26.2227273 41.8409091,26.2477273 C44.9068182,26.2704545 44.5909091,24.15 44.1840909,23.6409091 Z" id="Path" fill="#121111" fill-rule="nonzero"></path>
                            </g>
                        </g>
                    </g>
                </g>
            </g>
        </g>
    </g>
</svg>