<?xml version="1.0" encoding="UTF-8"?>
<svg width="75px" height="75px" viewBox="0 0 75 75" version="1.1" xmlns="http://www.w3.org/2000/svg" xmlns:xlink="http://www.w3.org/1999/xlink">
    <title>Group 8 Copy 2</title>
    <defs>
        <filter id="filter-1">
            <feColorMatrix in="SourceGraphic" type="matrix" values="0 0 0 0 0.000000 0 0 0 0 0.219608 0 0 0 0 0.388235 0 0 0 1.000000 0"></feColorMatrix>
        </filter>
    </defs>
    <g id="Page-1" stroke="none" stroke-width="1" fill="none" fill-rule="evenodd">
        <g id="HD_Koncepcjazywienia" transform="translate(-380.000000, -2311.000000)">
            <g id="Group-8-Copy-2" transform="translate(380.000000, 2311.000000)">
                <circle id="Oval-Copy" fill="#FFFFFF" cx="37.5" cy="37.3607479" r="37.3607479"></circle>
                <g filter="url(#filter-1)" id="ginger">
                    <g transform="translate(18.500000, 18.360748)">
                        <path d="M15.6509706,20.6019076 C15.7123696,20.9268261 16.0255379,21.1404539 16.350458,21.079063 C19.9655672,20.396021 22.560105,22.6877563 23.7848866,24.1147521 C23.9235921,24.279207 24.1398659,24.3566026 24.3514195,24.3174913 C24.5629732,24.27838 24.7372799,24.1287751 24.808019,23.9255988 C24.8787581,23.7224225 24.8350533,23.4969135 24.6935336,23.3348739 C23.3003067,21.7118109 20.3353487,19.1072143 16.1281261,19.9025 C15.8032449,19.9639003 15.589629,20.2770153 15.6509706,20.6019076 L15.6509706,20.6019076 Z" id="Path" fill="#000000" fill-rule="nonzero"></path>
                        <circle id="Oval" fill="#000000" fill-rule="nonzero" cx="12.0256429" cy="22.4405966" r="1"></circle>
                        <circle id="Oval" fill="#000000" fill-rule="nonzero" cx="25.3059244" cy="25.3538235" r="1"></circle>
                        <circle id="Oval" fill="#000000" fill-rule="nonzero" cx="16.2500294" cy="8.00953782" r="1"></circle>
                        <path d="M37.6060294,3.87592017 C34.3233054,2.6861332 30.679553,4.23858095 29.2635924,7.43027731 C27.8924456,7.27088871 26.6279798,8.18901729 26.3550756,9.54215126 L26.2752437,9.94929412 C24.3734948,9.61633248 22.4658917,10.5046733 21.4968235,12.1745294 L20.0000546,14.7668319 L19.5742311,13.149437 L20.3649664,8.66535714 C20.6013251,7.28181291 19.8510493,5.91832531 18.5558151,5.37755882 L18.2725714,3.7712605 C18.0231275,2.36673425 16.6866,1.4270279 15.2805208,1.66756341 C13.8744415,1.90809892 12.9262817,3.2386427 13.1578992,4.64621849 C11.7349519,2.59357997 9.54779262,1.19783477 7.0867605,0.771894958 L2.76266387,0.00910084034 C2.60625892,-0.0184600965 2.44531165,0.0172471355 2.31523652,0.108365599 C2.1851614,0.199484063 2.09661614,0.338547957 2.06908403,0.494957983 C1.57228501,3.28048641 2.36335816,6.14117034 4.22071429,8.27569748 C3.74842808,8.52636622 3.30384228,8.82605692 2.89430672,9.16981513 L0.213869748,11.4187605 C0.0922122856,11.5208388 0.0160925114,11.6670679 0.00225865785,11.8252739 C-0.0115751957,11.9834799 0.0380102757,12.1407009 0.140105042,12.2623445 C1.42267629,13.7986319 3.2626727,14.7629209 5.25581513,14.9433403 C5.49531092,14.9655868 5.73406162,14.9767101 5.97206723,14.9767101 C7.40249977,14.9779826 8.80368949,14.5716929 10.011563,13.805416 C10.0969894,14.0661652 10.2101468,14.3169958 10.3490924,14.5536008 L12.8797647,19.4902479 C12.1930485,18.949491 11.5441979,18.3623086 10.9377731,17.7328277 C10.3816182,17.152943 9.65408675,16.7667917 8.86214286,16.6311471 C8.15278379,15.4258415 6.61574913,14.9996687 5.38699975,15.6675959 C4.15825038,16.3355232 3.68001368,17.8571633 4.30573529,19.1079328 C3.92999182,19.6793772 3.68742442,20.3279333 3.59594958,21.0056975 C3.5667308,21.2180355 3.65324564,21.429795 3.82279018,21.5609278 C3.99233473,21.6920606 4.21904302,21.7225608 4.41721594,21.640899 C4.61538885,21.5592371 4.75479283,21.3778716 4.78273109,21.1653613 C4.86402573,20.5638937 5.10624831,19.995545 5.48381513,19.5203445 C5.63654072,19.327893 5.65619627,19.0616726 5.53339076,18.8488782 L5.41659664,18.6462647 C5.03702932,17.9786662 5.26747239,17.1298685 5.93253842,16.7458812 C6.59760445,16.3618939 7.44791211,16.5867016 7.83630252,17.2492059 L7.97313445,17.4862269 C8.07109596,17.6560032 8.2459551,17.7670793 8.44126891,17.7836008 C8.96286205,17.8275259 9.45842569,18.0304047 9.86107983,18.3648571 C7.9437563,19.9785 6.51660084,21.9536218 5.7589958,24.0385126 C5.39050966,23.6767702 5.11105101,23.2344078 4.94263445,22.7462731 C4.83239536,22.4361414 4.49249446,22.2731443 4.18164624,22.3813465 C3.87079803,22.4895487 3.70557462,22.828373 3.81173529,23.1399244 C4.16487815,24.1493127 4.85950473,25.0036469 5.77560084,25.5553193 L11.1935546,28.8193277 L12.027479,33.2670042 C11.1165567,33.8932402 10.7024491,35.0278657 10.9958329,36.093641 C11.2892167,37.1594162 12.2256566,37.9222665 13.3287395,37.9940924 C13.3562433,37.9979919 13.3839859,38 13.4117647,38 L19.3742521,38 C21.2856628,37.9973755 22.8973171,36.5746719 23.1370504,34.6783529 L23.4132689,32.4684454 L26.3158782,31.0261218 C27.1048109,31.8017944 28.2988292,31.9918422 29.2895974,31.4994385 C30.2803655,31.0070348 30.8498842,29.9405236 30.7079916,28.8432773 L33.1868529,27.6114706 C33.1980294,27.6058824 33.208993,27.5999748 33.2197437,27.5937479 C34.3671681,26.9311429 35.1252521,25.9691681 35.4120882,24.8112059 C35.7074664,23.6196345 35.4723613,22.294105 34.7677647,21.1743025 C34.5916474,20.8943313 34.2219145,20.8101411 33.9419433,20.9862584 C33.6619721,21.1623758 33.5777818,21.5321086 33.7538992,21.8120798 C34.2860588,22.6577395 34.4666387,23.645979 34.2493361,24.5233319 C34.1830173,24.7905231 34.0791039,25.0469468 33.9407059,25.2849286 C33.7334911,24.6941437 33.4533512,24.1315308 33.1067815,23.6101345 C32.9252191,23.3337566 32.5539851,23.2568935 32.2776072,23.4384559 C32.0012293,23.6200184 31.9243661,23.9912523 32.1059286,24.2676303 C32.5219373,24.8906037 32.8238013,25.5826175 32.9974118,26.3113277 C32.8811499,26.3962356 32.7606335,26.4751588 32.6363319,26.5477899 L30.9055756,27.4078992 C30.0184034,25.5019916 28.7237689,23.9710546 27.7570042,22.9950294 C27.6074915,22.838201 27.384914,22.7743882 27.1750183,22.8281744 C26.9651225,22.8819607 26.8006642,23.0449523 26.7449998,23.2543578 C26.6893354,23.4637633 26.7511517,23.6869036 26.9066345,23.8378151 C27.8094538,24.7494958 29.0189076,26.1776891 29.8335924,27.9411765 L29.752084,27.9817311 C29.4814806,28.1161276 29.353411,28.4310809 29.4534328,28.7161849 C29.6836199,29.3803281 29.3845245,30.1120764 28.7550375,30.4248357 C28.1255504,30.737595 27.3617131,30.5339625 26.971458,29.9493487 C26.8045859,29.6976451 26.4763858,29.6096139 26.2059496,29.744021 L25.4404412,30.1244202 C24.4482161,29.2452975 23.3516039,28.4915844 22.1753151,27.8802647 C21.9852774,27.7778165 21.7548024,27.7856102 21.5721196,27.9006622 C21.3894368,28.0157142 21.28284,28.2202052 21.2931363,28.435853 C21.3034325,28.6515008 21.4290271,28.8449057 21.6218403,28.9420294 C22.5668025,29.4331802 23.4570107,30.0231646 24.2775294,30.702084 L22.592437,31.539042 C22.4127496,31.6284272 22.2897315,31.8018214 22.2647269,32.0009496 L22.0571639,33.6638487 C19.360042,32.3276218 16.9474412,31.8079958 14.5204706,32.0339202 C14.3059911,32.0518547 14.1176402,32.1835262 14.027134,32.3787996 C13.9366279,32.5740731 13.957894,32.8028988 14.0828352,32.9781494 C14.2077765,33.1534 14.4171661,33.2481071 14.6312773,33.2262101 C16.9293193,33.0125798 19.2380588,33.5491303 21.8712353,34.9118613 C21.554605,36.0290432 20.5354355,36.8007355 19.3742521,36.802521 L13.462458,36.802521 C13.453916,36.8018025 13.4452143,36.8012437 13.4365924,36.8008445 C12.7876765,36.7725114 12.2438882,36.3006838 12.1243407,35.6622458 C12.0047931,35.0238078 12.3410261,34.3871962 12.9357269,34.1259958 C13.1905973,34.0140239 13.3346707,33.7411612 13.283395,33.467542 L12.321021,28.3349076 C12.3146672,28.3022636 12.3055604,28.2702163 12.2937983,28.2391092 C15.1478697,26.9929328 17.917,27.4771933 19.7972017,28.1437899 C20.1088736,28.2543234 20.4511387,28.0912686 20.5616723,27.7795966 C20.6722058,27.4679247 20.5091509,27.1256596 20.197479,27.0151261 C17.0248782,25.8904538 13.9214916,26.0351891 11.2073655,27.4296933 L9.96007143,26.6781555 C10.3313351,25.9369723 10.779386,25.2368142 11.2968571,24.5891933 C11.5027572,24.3304293 11.4599026,23.9537447 11.2011386,23.7478446 C10.9423747,23.5419445 10.56569,23.5847991 10.3597899,23.843563 C9.81031983,24.5318661 9.33174862,25.2738882 8.93135714,26.0583403 L6.77685294,24.7601933 C7.43834034,22.7255168 8.82055042,20.7793739 10.7220672,19.2052479 C11.7931065,20.2109164 12.9592229,21.1102612 14.2040168,21.8906345 C14.4321355,22.0349398 14.728606,22.0087615 14.9279078,21.8267149 C15.1272095,21.6446683 15.1800553,21.3517734 15.0569412,21.1115546 L12.3975798,15.923916 C13.2753319,14.7756134 14.2333151,13.8525168 15.2496555,13.1776975 C15.427913,13.0593345 15.5294838,12.8548633 15.5161072,12.6413063 C15.5027306,12.4277493 15.3764388,12.2375508 15.1848047,12.1423567 C14.9931706,12.0471627 14.7653079,12.0614353 14.5870504,12.1797983 C13.5345369,12.8943262 12.5942446,13.7615433 11.797084,14.7529412 L11.4067059,13.9914244 C11.400958,13.9801947 11.3948908,13.9692045 11.3885042,13.9584538 C10.9760289,13.2649296 10.9097069,12.4189738 11.2090638,11.6696427 C11.5084208,10.9203116 12.139375,10.3529169 12.9161681,10.1345042 L13.2949706,10.0280084 C13.5164288,9.96577989 13.6826544,9.78217773 13.7226303,9.55564286 L14.4623529,5.36015546 C14.4744932,5.29133946 14.4744932,5.22092945 14.4623529,5.15211345 L14.3412479,4.46507983 C14.2511011,3.97206326 14.4319545,3.46853311 14.815188,3.14554102 C15.1984215,2.82254893 15.7253079,2.72959056 16.1959337,2.90193657 C16.6665595,3.07428258 17.0088055,3.4855225 17.0928151,3.97962185 L17.4376092,5.93470588 C17.4782084,6.16488011 17.6490342,6.35038826 17.8750882,6.40978571 C18.7750369,6.65175433 19.3427729,7.53912723 19.1852899,8.45763445 L18.8139118,10.5639202 C17.9781022,10.6863685 17.1601845,10.9095247 16.378,11.228521 C16.1775522,11.3079037 16.0352603,11.4889224 16.0054643,11.7024479 C15.9756683,11.9159733 16.0629696,12.1290302 16.2340286,12.2602541 C16.4050877,12.391478 16.6334875,12.4206037 16.8320042,12.3365084 C17.4001177,12.1047997 17.9900514,11.930692 18.592937,11.8168025 L18.3717227,13.0711218 C18.3567126,13.1563637 18.3603623,13.2438466 18.3824202,13.327542 L19.2119538,16.4785084 C19.2737214,16.7131593 19.4710032,16.8873303 19.7115008,16.9195354 C19.9519985,16.9517405 20.1881544,16.8356114 20.3094832,16.625479 L20.597916,16.1260504 C21.1272652,16.2742692 21.6479161,16.4519595 22.1574328,16.6582899 C22.463858,16.7827559 22.8131643,16.6352487 22.9376303,16.3288235 C23.0620962,16.0223983 22.9145891,15.673092 22.6081639,15.5486261 C22.155916,15.3650126 21.6896176,15.2012773 21.2143782,15.0580588 L22.5334412,12.7734286 C22.6566588,12.5598761 22.8029345,12.3604871 22.9696429,12.1788403 C25.5592311,12.6646975 27.7807143,14.0045966 29.7436218,16.2645588 C29.3406998,17.3374476 28.8003058,18.3535375 28.1359664,19.287395 C27.0655816,18.2007719 25.8558286,17.2608879 24.5383403,16.4923193 C24.3530381,16.3854504 24.1247978,16.385557 23.9395955,16.492599 C23.7543931,16.5996409 23.6403653,16.7973561 23.6404652,17.011267 C23.6405651,17.225178 23.7547776,17.4227865 23.9400798,17.5296555 C25.2164789,18.2757783 26.3842766,19.1937865 27.4106933,20.2579118 C27.1765196,20.5516933 26.9283221,20.8468585 26.6661008,21.1434076 C26.4619492,21.3739387 26.4659477,21.7217301 26.6753455,21.9475067 C26.8847432,22.1732833 27.2312501,22.2034135 27.4764748,22.0171681 L28.3808109,21.3306134 C28.3849622,21.3354832 28.3887941,21.3401933 28.3932647,21.3451429 C28.5996364,21.5886669 28.9607648,21.6274699 29.2141613,21.4333477 C29.4675578,21.2392255 29.5241071,20.8804476 29.3427059,20.6177941 C30.0797941,20.2198319 30.8172815,20.0865924 31.5370462,20.2235042 C31.8607634,20.2827471 32.1716133,20.0696222 32.2330455,19.7463134 C32.2944777,19.4230046 32.0834613,19.1107195 31.7605756,19.0471008 C31.049157,18.9156838 30.316035,18.9667431 29.6297017,19.1955084 C30.912042,17.1253067 31.5347311,15.0827269 31.5228361,13.0119664 L31.5407983,11.798521 C34.0045761,11.4848344 36.0855455,9.81859777 36.9304118,7.48304622 L37.9636765,4.64422269 C38.0182743,4.49491993 38.0112548,4.33003335 37.9441654,4.185911 C37.8770761,4.04178865 37.755425,3.93026339 37.6060294,3.87592017 L37.6060294,3.87592017 Z M12.6086555,8.97718067 L12.5920504,8.98189076 C11.8074694,9.19978142 11.1146917,9.6661991 10.6176471,10.3111723 L9.8857479,10.182084 C9.44218162,10.1038785 9.00573114,9.98963302 8.58073529,9.84048319 C8.37859534,9.76811737 8.15318191,9.80952512 7.98995776,9.9490072 C7.8267336,10.0884893 7.7506888,10.3046906 7.79065482,10.515641 C7.83062083,10.7265915 7.98047875,10.899994 8.18341176,10.970105 C8.67008675,11.1409523 9.16989839,11.271779 9.67786555,11.3612815 L10.0244958,11.4225126 C9.90915512,11.7626583 9.84271008,12.117462 9.82715126,12.4762941 C7.29225506,14.4007938 3.72821761,14.1695028 1.46331933,11.9335168 L3.66428571,10.0870042 C4.10370094,9.7180731 4.59072827,9.40990171 5.11227731,9.17077311 C5.47714878,9.49082199 5.86606284,9.78237408 6.27558824,10.0428571 C6.55454014,10.2184245 6.92293163,10.1355185 7.09977643,9.85737469 C7.27662123,9.57923087 7.19540552,9.21046304 6.91807563,9.03234454 C4.29968619,7.37524453 2.8460262,4.37789041 3.16597479,1.2957521 L6.87919748,1.95037395 C9.61145663,2.4239145 11.9146311,4.25594816 12.9906513,6.81165966 L12.6086555,8.97718067 Z M30.3712605,10.2649496 C30.3673334,10.2913882 30.3651466,10.3180563 30.3647143,10.3447815 L30.325437,13.0003109 L30.325437,13.0130042 C30.3287969,13.650893 30.2637614,14.2873038 30.1314454,14.9113277 C28.4101092,13.0965882 26.4990924,11.8955966 24.3403571,11.2743445 C25.0535038,11.019563 25.8315919,11.0118873 26.5496261,11.2525504 C26.7130278,11.3075215 26.8921951,11.2893903 27.041271,11.2027975 C27.1903469,11.1162048 27.2948624,10.969555 27.3280672,10.8003824 L27.5297227,9.77302521 C27.6841463,9.00387289 28.4225259,8.49720771 29.1957353,8.62983193 C29.9686113,8.76174226 30.4923081,9.48986143 30.3715,10.2645504 L30.3712605,10.2649496 Z M35.8051807,7.07294958 C35.13379,8.92883963 33.5078216,10.2739648 31.559,10.5857143 L31.5617941,10.3999454 C31.7019997,9.391522 31.2459814,8.39306185 30.3920168,7.83869748 C31.4841078,5.47664383 34.0931663,4.21553983 36.6225798,4.82711765 L35.8051807,7.07294958 Z" id="Shape" fill="#000000" fill-rule="nonzero"></path>
                        <path d="M32.7176008,19.8645 C32.5463485,20.035733 32.4951104,20.2932668 32.5877799,20.5170088 C32.6804494,20.7407507 32.8987759,20.8866363 33.1409496,20.8866363 C33.3831233,20.8866363 33.6014497,20.7407507 33.6941192,20.5170088 C33.7867888,20.2932668 33.7355507,20.035733 33.5642983,19.8645 C33.3304815,19.6307097 32.9514177,19.6307097 32.7176008,19.8645 Z" id="Path" fill="#000000" fill-rule="nonzero"></path>
                    </g>
                </g>
            </g>
        </g>
    </g>
</svg>