<?xml version="1.0" encoding="UTF-8"?>
<svg width="76px" height="75px" viewBox="0 0 76 75" version="1.1" xmlns="http://www.w3.org/2000/svg" xmlns:xlink="http://www.w3.org/1999/xlink">
    <title>Group 8 Copy 2</title>
    <defs>
        <filter id="filter-1">
            <feColorMatrix in="SourceGraphic" type="matrix" values="0 0 0 0 0.000000 0 0 0 0 0.219608 0 0 0 0 0.388235 0 0 0 1.000000 0"></feColorMatrix>
        </filter>
    </defs>
    <g id="Page-1" stroke="none" stroke-width="1" fill="none" fill-rule="evenodd">
        <g id="HD_Koncepcjazywienia" transform="translate(-779.000000, -2115.000000)">
            <g id="Group-8-Copy-2" transform="translate(779.500000, 2115.000000)">
                <circle id="Oval-Copy" fill="#FFFFFF" cx="37.5" cy="37.3607479" r="37.3607479"></circle>
                <g filter="url(#filter-1)" id="apple">
                    <g transform="translate(21.500000, 19.360748)">
                        <path d="M28.7525732,14.3737559 C28.6032236,14.0742939 28.239418,13.95254 27.9400254,14.1018203 C27.6405635,14.2511006 27.5188096,14.6148369 27.6680205,14.9142988 C28.4226035,16.428041 28.8051992,18.15721 28.8051992,20.0536865 C28.8051992,22.736918 27.5726143,26.2888594 25.5884971,29.3233467 C23.5556367,32.4322314 21.1921133,34.2882852 19.2660303,34.2882852 C18.4635361,34.2882852 17.6025225,34.1616777 16.8415605,33.9318291 C15.6543906,33.5732236 14.3992715,33.5732236 13.2121016,33.9318291 C12.4510703,34.1617471 11.5899873,34.2882852 10.7874932,34.2882852 C8.86141016,34.2882852 6.49788672,32.4321621 4.46502637,29.3233467 C2.48083984,26.2888594 1.24832422,22.736918 1.24832422,20.0536865 C1.24832422,17.5186953 1.94965723,15.2401777 3.27640039,13.464415 C4.39263965,11.9704336 5.94867676,10.8761738 7.54527539,10.4621689 C8.7382002,10.1528613 10.3111553,10.2349551 12.0944756,10.6992285 C12.2893789,10.7499824 12.4887891,10.7964375 12.6869512,10.8371377 C13.0146328,10.9043242 13.3349648,10.693335 13.4023594,10.365584 C13.4697539,10.037833 13.2585566,9.71757031 12.9308057,9.65017578 C12.753167,9.61363574 12.5745576,9.57217285 12.3999004,9.52668848 C10.3889502,9.00306348 8.65333301,8.92325781 7.24116797,9.28928223 C5.35536914,9.77816992 3.60262598,11.0034053 2.30562793,12.7391611 C0.821214844,14.7259131 0.0365400391,17.2552188 0.0365400391,20.0536865 C0.0365400391,22.959625 1.34477051,26.7656826 3.45084961,29.9864756 C5.74198633,33.4903672 8.41606543,35.5 10.7874238,35.5 C11.7186055,35.5 12.6782148,35.358832 13.5623174,35.0918193 C14.5201934,34.8024805 15.5329834,34.8024805 16.490998,35.0918193 C17.3751699,35.3589014 18.33471,35.5 19.2658916,35.5 C21.63725,35.5 24.3113291,33.4903672 26.6024658,29.9864756 C28.7084062,26.7656133 30.0167754,22.959625 30.0167754,20.0536865 C30.0167754,17.9679229 29.5915381,16.0568857 28.7525732,14.3737559 Z" id="Path" fill="#000000" fill-rule="nonzero"></path>
                        <path d="M27.4876084,12.4053779 C26.2226436,10.8496875 24.5622559,9.7430166 22.8122861,9.28928223 C21.4001904,8.92318848 19.6645039,9.00299414 17.6534844,9.52668848 C17.2178467,9.64019141 16.7704912,9.72616797 16.3238291,9.78226074 C15.9918486,9.82393164 15.7565225,10.1268604 15.7981934,10.4589102 C15.8398643,10.7908906 16.1432783,11.0264941 16.4748428,10.9845459 C16.9734375,10.9219355 17.4727256,10.8259746 17.9589785,10.6992979 C19.7425068,10.2349551 21.3155312,10.1530693 22.508248,10.4622383 C24.0097871,10.8516289 25.4443477,11.8131797 26.5474131,13.1698066 C26.6671562,13.3170762 26.8418135,13.3934844 27.0178574,13.3934844 C27.1522305,13.3934844 27.2873662,13.34904 27.3996904,13.2577246 C27.6593535,13.0465967 27.698667,12.6649717 27.4876084,12.4053779 Z" id="Path" fill="#000000" fill-rule="nonzero"></path>
                        <path d="M31.578498,0.455606445 C31.3783252,0.327612305 31.1218516,0.328444336 30.9223721,0.457686523 C30.0523447,1.02194238 29.074916,0.814974609 27.5952871,0.50178418 C27.4666689,0.474535156 27.335624,0.446870117 27.2019443,0.419066406 C26.8744014,0.351047852 26.553584,0.561482422 26.4855654,0.889164063 C26.4175469,1.2168457 26.6279814,1.53752441 26.9556631,1.60554297 C27.087748,1.63293066 27.2172676,1.6603877 27.344291,1.68729004 C28.4558154,1.92261621 29.4609785,2.1354082 30.4080381,1.95041992 C29.9524316,3.5783584 28.754584,6.59877051 25.9718555,7.67105078 C23.6186631,8.57775684 21.4074014,7.30655176 19.6305986,6.28516406 C18.9177559,5.87538867 18.2879775,5.51338574 17.7282979,5.35599316 C18.3587695,4.01794824 19.9226416,1.46063086 22.7350459,1.24700684 C23.553418,1.1848125 24.3672832,1.20498926 25.222958,1.30850781 C25.5554238,1.34844531 25.8570352,1.11194043 25.89725,0.779821289 C25.9374648,0.447632812 25.7006826,0.145744141 25.3685635,0.105529297 C24.433291,-0.00762695313 23.5417002,-0.0294677734 22.6433838,0.0386894531 C20.7205596,0.184710937 19.0000576,1.23452637 17.6679756,3.0744248 C16.8150049,4.25265039 16.3810313,5.39218652 16.2707871,5.70537695 L14.6760605,8.12714258 C14.227249,6.76982227 13.782043,5.91907031 13.7462656,5.85167578 C13.5892891,5.55616602 13.222502,5.4438418 12.9269922,5.60074902 C12.6314824,5.75765625 12.5191582,6.12444336 12.6760654,6.41995313 C12.6911113,6.44817285 14.0887158,9.11739844 14.3707744,12.6149805 C13.9063623,12.5629092 13.4794609,12.4563398 13.1468564,12.3056729 C12.7454014,12.1238047 12.620666,11.9393018 12.620666,11.892708 C12.620666,11.5580928 12.3494238,11.2868506 12.0148086,11.2868506 C11.6801934,11.2868506 11.4089512,11.5580928 11.4089512,11.892708 C11.4089512,12.2496494 11.5698105,12.9214453 12.646875,13.4093623 C13.2924619,13.7018906 14.1375283,13.862958 15.0263457,13.862958 C15.9155098,13.862958 16.7607842,13.7018906 17.4065098,13.4094316 C18.4836436,12.9215146 18.6445723,12.2497188 18.6445723,11.8927773 C18.6445723,11.5581621 18.3733301,11.2869199 18.0387148,11.2869199 C17.7040996,11.2869199 17.4328574,11.5581621 17.4328574,11.8927773 C17.4328574,11.9393711 17.3081221,12.1238047 16.9065977,12.3056729 C16.551251,12.4666709 16.0880176,12.5770537 15.5865801,12.6246875 C15.5071211,11.5480391 15.3305225,10.5471748 15.1157197,9.66272559 L17.2071689,6.48672363 C17.2785156,6.48970508 17.4074805,6.51203125 17.6247793,6.59786914 C18.0066816,6.74895215 18.4794141,7.02067969 19.0268213,7.33532617 C20.448,8.15224219 22.2626602,9.19574805 24.3018301,9.19554004 C24.9809063,9.19554004 25.6852207,9.07967969 26.4076318,8.8012959 C30.9415088,7.05423828 31.8167363,1.29595801 31.8518203,1.0516875 C31.8855869,0.81684668 31.7786709,0.58353125 31.578498,0.455606445 Z" id="Path" fill="#000000" fill-rule="nonzero"></path>
                    </g>
                </g>
            </g>
        </g>
    </g>
</svg>