<?xml version="1.0" encoding="UTF-8"?>
<svg width="111px" height="111px" viewBox="0 0 111 111" version="1.1" xmlns="http://www.w3.org/2000/svg" xmlns:xlink="http://www.w3.org/1999/xlink">
    <title>right-drawn-arrow (2)</title>
    <defs>
        <filter id="filter-1">
            <feColorMatrix in="SourceGraphic" type="matrix" values="0 0 0 0 0.000000 0 0 0 0 0.219608 0 0 0 0 0.388235 0 0 0 1.000000 0"></feColorMatrix>
        </filter>
    </defs>
    <g id="Page-1" stroke="none" stroke-width="1" fill="none" fill-rule="evenodd">
        <g id="HD_Koncepcjazywienia" transform="translate(-671.000000, -1611.000000)">
            <g id="right-drawn-arrow-(2)" transform="translate(380.000000, 1415.010301)" filter="url(#filter-1)">
                <g transform="translate(346.891855, 251.358013) rotate(-41.000000) translate(-346.891855, -251.358013) translate(307.391855, 212.858013)">
                    <path d="M78.1177237,70.0312176 C76.6198949,65.4227017 74.3155428,61.0442445 72.3566553,56.6659756 C72.12622,56.0898875 71.2044792,56.0898875 70.8588264,56.4355403 C68.9003154,58.5094572 66.7111809,60.5833741 65.443599,63.1181614 L65.3283814,63.1181614 C51.2718337,64.1551198 37.6761565,52.1723007 27.9978778,43.4159511 C16.8217702,33.3920196 6.68262103,21.1789535 2.65000489,6.54631785 C2.41956968,4.70283619 2.18913447,2.74413692 2.18913447,0.785437653 C2.18913447,-0.136303178 0.921740831,-0.136303178 0.806523227,0.785437653 C0.806523227,1.13109046 0.806523227,1.47674328 0.806523227,1.82239609 C0.345652812,1.82239609 0,2.1680489 0,2.74413692 C0.115217604,4.01153056 0.460870416,5.27892421 0.691305623,6.54631785 C1.61304645,37.7702885 32.7217995,67.8420831 63.1392469,69.8007824 C62.1022885,71.6442641 61.1807359,73.6027751 60.0285599,75.446445 C59.4522836,76.25278 60.3742127,77.0593032 61.1807359,76.9440856 C66.9416161,76.1377506 72.1264083,73.3723399 77.4264181,71.2986112 C77.8871002,71.1833936 78.3479707,70.7225232 78.1177237,70.0312176 Z M62.6783765,74.6399218 C63.3698704,73.1420929 63.8305526,71.6442641 64.6370758,70.1464352 C64.8676993,69.5701589 64.5218582,69.1094768 64.1762054,68.9942592 C64.1762054,68.6486064 63.9457702,68.4179829 63.6001174,68.3029535 C36.06311,63.6942494 13.7108949,44.91378 5.41522738,19.4505012 C10.8304548,29.4744328 19.1261222,38.2309707 27.3065721,45.6048973 C33.2978875,51.020313 39.6348557,55.8592641 46.547912,59.8918802 C51.9631394,63.0027555 58.760978,65.8831956 64.9827286,63.9246846 L64.9827286,63.9246846 C64.6370758,64.8464254 66.019687,65.3072958 66.4805575,64.6159902 C67.9783863,62.657291 69.4762152,60.8138093 71.0892616,59.0855452 C72.7021198,62.657291 74.4305721,66.2288484 75.6977775,69.9158117 C71.4349144,71.5290465 67.1718631,73.6029633 62.6783765,74.6399218 Z" id="Shape" fill="#000000" fill-rule="nonzero"></path>
                </g>
            </g>
        </g>
    </g>
</svg>