<?xml version="1.0" encoding="UTF-8"?>
<svg width="28px" height="28px" viewBox="0 0 28 28" version="1.1" xmlns="http://www.w3.org/2000/svg" xmlns:xlink="http://www.w3.org/1999/xlink">
    <title>magnifying-glass</title>
    <defs>
        <filter id="filter-1">
            <feColorMatrix in="SourceGraphic" type="matrix" values="0 0 0 0 1.000000 0 0 0 0 1.000000 0 0 0 0 1.000000 0 0 0 1.000000 0"></feColorMatrix>
        </filter>
    </defs>
    <g id="Page-1" stroke="none" stroke-width="1" fill="none" fill-rule="evenodd">
        <g id="magnifying-glass" transform="translate(-966.000000, -32.000000)" filter="url(#filter-1)">
            <g transform="translate(966.500000, 32.250000)">
                <path d="M26.7256284,25.6189708 L20.611307,19.5046493 C22.4879151,17.3647037 23.5233527,14.6569559 23.5233527,11.7842222 C23.5233527,8.64843762 22.3020551,5.70066245 20.0849186,3.48352591 C17.867782,1.26638937 14.9200069,0.0450918 11.7842222,0.0450918 C8.64843762,0.0450918 5.70066245,1.26638937 3.48352591,3.48352591 C1.26638937,5.70066245 0.0450918,8.64843762 0.0450918,11.7842222 C0.0450918,14.9200069 1.26638937,17.867782 3.48352591,20.0849186 C5.70066245,22.3020551 8.64843762,23.5233527 11.7842222,23.5233527 C14.6569559,23.5233527 17.3647037,22.4879151 19.5046493,20.611307 L25.6189708,26.7256284 C25.7718241,26.8784817 25.9720619,26.9549084 26.1722997,26.9549084 C26.3725375,26.9549084 26.5727752,26.8784817 26.7256285,26.7256284 C27.0313349,26.4199219 27.0313349,25.9246773 26.7256284,25.6189708 L26.7256284,25.6189708 Z M4.59018344,18.9782609 C2.66881797,17.0565133 1.61030911,14.501571 1.61030911,11.7842222 C1.61030911,9.06687329 2.66881797,6.51193106 4.59018344,4.59018344 C6.51193106,2.66881797 9.06687329,1.61030911 11.7842222,1.61030911 C14.501571,1.61030911 17.0565133,2.66881797 18.9782609,4.59018344 C20.8996263,6.51193106 21.9581352,9.06687329 21.9581352,11.7842222 C21.9581352,14.501571 20.8996263,17.0565133 18.9782609,18.9782609 C17.0565133,20.8996263 14.501571,21.9581352 11.7842222,21.9581352 C9.06687329,21.9581352 6.51193106,20.8996263 4.59018344,18.9782609 Z" id="Shape" fill="#000000" fill-rule="nonzero"></path>
            </g>
        </g>
    </g>
</svg>