<?xml version="1.0" encoding="UTF-8"?>
<svg width="75px" height="75px" viewBox="0 0 75 75" version="1.1" xmlns="http://www.w3.org/2000/svg" xmlns:xlink="http://www.w3.org/1999/xlink">
    <title>Group 9</title>
    <defs>
        <filter id="filter-1">
            <feColorMatrix in="SourceGraphic" type="matrix" values="0 0 0 0 0.000000 0 0 0 0 0.219608 0 0 0 0 0.388235 0 0 0 1.000000 0"></feColorMatrix>
        </filter>
    </defs>
    <g id="Page-1" stroke="none" stroke-width="1" fill="none" fill-rule="evenodd">
        <g id="HD_Koncepcjazywienia" transform="translate(-380.000000, -2115.000000)">
            <g id="Group-8-Copy-2" transform="translate(380.000000, 2115.000000)">
                <circle id="Oval-Copy" fill="#FFFFFF" cx="37.5" cy="37.3607479" r="37.3607479"></circle>
                <g filter="url(#filter-1)" id="mussel">
                    <g transform="translate(22.500000, 19.360748)">
                        <path d="M29.5668772,6.47382456 C28.9022456,4.66807018 27.4527719,3.34757895 25.2587368,2.54912281 C22.6164211,1.58750877 20.1507368,1.23761404 17.9232982,1.50414035 C16.7367018,0.505192982 15.1702456,0 13.2442105,0 C8.6725614,0 5.05319298,1.38392982 2.77754386,4.00217544 C2.58687719,4.22154386 2.61017544,4.55396491 2.82954386,4.74463158 C3.04884211,4.93522807 3.38126316,4.91214035 3.57207018,4.69263158 C5.64175439,2.31136842 8.98631579,1.05263158 13.2442105,1.05263158 C15.0039298,1.05263158 16.3681404,1.50378947 17.3793684,2.42470175 C17.3921404,2.43761404 17.4054737,2.44975439 17.4195088,2.46126316 C17.713193,2.73487719 17.9768421,3.04849123 18.2108772,3.4034386 C19.188,4.88512281 19.6395088,7.09494737 19.5529825,9.97157895 C19.5395088,10.4185965 19.5125614,10.8826667 19.4731228,11.3621754 C18.2358596,9.684 16.3710175,8.83424561 13.9077193,8.83424561 C10.3086316,8.83424561 7.34912281,9.66491228 5.11122807,11.3031579 C3.45291228,12.517193 2.25375439,14.122807 1.52919298,16.0912281 C0.716210526,12.0836491 1.076,8.64042105 2.59529825,6.05333333 C2.74245614,5.80266667 2.65859649,5.48014035 2.40792982,5.33298246 C2.15733333,5.18582456 1.83480702,5.26954386 1.68750877,5.5202807 C-0.211719298,8.75438596 -0.460350877,13.1548772 0.968421053,18.2459649 C2.44414035,23.5042105 5.19831579,29.7768421 10.3550877,35.1326316 C11.2008421,36.0110175 11.9277193,35.9298246 12.0792281,35.9298246 C12.7818947,35.9298246 13.4976842,35.7074386 13.8820351,35.2980351 C16.741614,32.2518596 22.0999298,26.2261754 25.8574035,20.0955789 C26.0092632,19.8477193 25.9315789,19.5237193 25.6836491,19.3717895 C25.4359298,19.2199298 25.1118596,19.297614 24.9598596,19.5454737 C21.7398596,24.7991579 17.3167719,29.9873684 14.3534737,33.2380351 C14.8444211,32.0510175 15.4155088,30.6191579 16.0092632,29.0261053 C17.8844211,26.9442105 20.5188772,23.8174035 22.5599298,20.6035789 C25.08,16.6355789 26.0774737,13.4962807 25.5246316,11.2729123 C25.1515789,9.77249123 24.0976842,8.69705263 22.3922105,8.07642105 C21.7622456,7.84715789 21.1402807,7.66807018 20.5377544,7.54084211 C20.3618246,5.59915789 19.6395088,3.68182456 18.8490526,2.48322807 C18.8490526,2.48322807 18.9320702,2.59326316 18.8490526,2.48322807 C20.7008421,2.39698246 22.7301754,2.74919298 24.898807,3.53845614 C26.8147368,4.2357193 28.0185263,5.31487719 28.5789474,6.83754386 C29.5260351,9.41080702 28.5874386,13.2141053 25.7892632,18.1417544 C25.6456842,18.3945263 25.7342456,18.7157895 25.9870175,18.8593684 C26.0690526,18.9059649 26.1583158,18.9280702 26.246386,18.9280702 C26.4295439,18.9280702 26.6076491,18.8322807 26.7044912,18.6615439 C29.6629474,13.4518596 30.6258947,9.35129825 29.5668772,6.47382456 L29.5668772,6.47382456 Z M13.9077193,9.88687719 C16.5339649,9.88687719 18.2917895,10.9421053 19.2810526,13.1115789 C19.0464561,14.8505263 18.6668772,16.7636491 18.1433684,18.834386 C17.8524912,19.9849825 17.5302456,21.1341053 17.1898246,22.262386 C16.2645614,21.9063158 15.1967719,21.7512281 14.0057544,21.8020351 C10.1893333,21.9648421 7.05003509,23.0773333 4.87101754,25.0283509 C3.62624561,22.6642807 2.67375439,20.358386 2.03915789,18.1583158 C3.11389474,12.8232281 7.32322807,9.88687719 13.9077193,9.88687719 Z M11.1747368,34.4721404 C8.87957895,31.624 6.93614035,28.7682807 5.3874386,25.982807 C7.40357895,24.0657544 10.3150877,23.0130526 14.0505263,22.8536842 C15.1265965,22.808 16.0750175,22.9485614 16.8790175,23.2711579 C15.454386,27.8037193 13.7940351,31.8964211 12.7854737,34.2504561 C12.653193,34.5590175 12.3755088,34.7705965 12.0425965,34.8163509 C11.7095439,34.8618947 11.3852632,34.7334035 11.1747368,34.4721404 L11.1747368,34.4721404 Z M22.0323509,9.06547368 C23.4075789,9.56596491 24.2157193,10.3710175 24.5031579,11.526807 C24.9770526,13.4325614 23.9978246,16.3761404 21.6714386,20.0391579 C20.2484912,22.2797895 18.5265263,24.4824561 16.9857544,26.3062456 C17.7694035,24.034807 18.5381053,21.5680702 19.1639298,19.0924211 C20.2117193,14.9473684 20.6913684,11.4541053 20.6040702,8.63466667 C21.069614,8.74540351 21.5475789,8.88905263 22.0323509,9.06547368 Z" id="Shape" fill="#000000" fill-rule="nonzero"></path>
                    </g>
                </g>
            </g>
        </g>
    </g>
</svg>