<?xml version="1.0" encoding="UTF-8"?>
<svg width="32px" height="28px" viewBox="0 0 32 28" version="1.1" xmlns="http://www.w3.org/2000/svg" xmlns:xlink="http://www.w3.org/1999/xlink">
    <title>paws</title>
    <defs>
        <filter id="filter-1">
            <feColorMatrix in="SourceGraphic" type="matrix" values="0 0 0 0 1.000000 0 0 0 0 1.000000 0 0 0 0 1.000000 0 0 0 1.000000 0"></feColorMatrix>
        </filter>
    </defs>
    <g id="Page-1" stroke="none" stroke-width="1" fill="none" fill-rule="evenodd">
        <g id="HD_HOME" transform="translate(-1408.000000, -32.000000)">
            <g id="paws" transform="translate(1408.000000, 32.250000)" filter="url(#filter-1)">
                <g>
                    <path d="M19.8356436,14.3073267 C17.4066797,12.0070824 13.6032213,12.0070824 11.1742574,14.3073267 L5.95069307,19.2475248 C2.95663366,21.9689109 5.11663366,27.1710891 9.15861386,26.9679208 C11.3506931,26.9091089 13.1310891,25.7863366 15.499604,25.8291089 C17.9536634,25.7863366 19.7768317,26.7754455 21.979604,26.9679208 C25.9520792,27.0588119 28.0051485,21.9154455 25.0538614,19.2475248 L19.8356436,14.3073267 Z M25.1287129,23.7546535 C24.6068187,25.0884043 23.2985693,25.9462728 21.8673267,25.8932673 C19.8089109,25.5938614 17.9964356,24.7277228 15.5049505,24.759802 C13.0134653,24.7918812 11.2277228,25.8291089 9.0249505,25.8987029 C7.62487761,25.9087185 6.36219234,25.0583099 5.84526545,23.7571209 C5.32833855,22.4559319 5.66320146,20.9708609 6.68851485,20.0174257 L11.9067327,15.1039604 C13.9261984,13.1961029 17.0837026,13.1961029 19.1031683,15.1039604 L24.3213861,20.0441584 C25.3312144,20.9954272 25.6520092,22.4698085 25.1287129,23.7546535 L25.1287129,23.7546535 Z" id="Shape" fill="#000000" fill-rule="nonzero"></path>
                    <path d="M28.8285149,7.04673267 C26.7861386,6.64574257 25.2249505,8.9180198 24.8186139,10.8748515 C23.599604,16.9324752 29.470099,18.0873267 30.8441584,12.2114851 C31.4055446,9.69326733 30.5180198,7.4209901 28.8285149,7.04673267 L28.8285149,7.04673267 Z M29.8015842,11.9815842 C28.6574257,16.5261386 24.989703,15.7241584 25.8611881,11.110099 C26.7914851,6.97722772 30.6409901,6.92376238 29.8015842,11.9815842 Z" id="Shape" fill="#000000" fill-rule="nonzero"></path>
                    <path d="M20.1724752,10.3188119 C22.2041584,10.3188119 23.8562376,8.00910891 23.8562376,5.17544554 C23.6530693,-1.64673267 16.6918812,-1.64673267 16.4940594,5.17544554 C16.4940594,8.00910891 18.1461386,10.3188119 20.1724752,10.3188119 L20.1724752,10.3188119 Z M20.1724752,1.10138614 C23.6209901,1.33663366 23.6209901,9.01425743 20.1724752,9.24950495 C16.7239604,9.01425743 16.7293069,1.33663366 20.1724752,1.10138614 Z" id="Shape" fill="#000000" fill-rule="nonzero"></path>
                    <path d="M6.19128713,10.8748515 C5.79029703,8.9180198 4.22376238,6.64574257 2.18138614,7.04673267 C-1.6039604,8.00376238 -1.06211914e-13,16.0716832 3.69980198,16.0930693 C5.79564356,16.0235644 6.76336634,13.5908911 6.19128713,10.8748515 L6.19128713,10.8748515 Z M3.94574257,14.9970297 C1.30990099,15.3926733 -0.144356436,8.84316832 2.41128713,8.09465347 C3.95108911,7.9449505 4.81722772,9.75742574 5.14871287,11.110099 C5.56574257,12.9653465 5.0150495,14.7617822 3.94574257,14.9970297 Z" id="Shape" fill="#000000" fill-rule="nonzero"></path>
                    <path d="M10.8374257,10.3188119 C12.8637624,10.3188119 14.5158416,8.00910891 14.5158416,5.17544554 C14.3180198,-1.64673267 7.35683168,-1.64673267 7.15366337,5.17544554 C7.15366337,8.00910891 8.80574257,10.3188119 10.8374257,10.3188119 L10.8374257,10.3188119 Z M10.8374257,1.10138614 C14.2859406,1.33663366 14.2805941,9.01425743 10.8374257,9.24950495 C7.38891089,9.01425743 7.38891089,1.33663366 10.8374257,1.10138614 Z" id="Shape" fill="#000000" fill-rule="nonzero"></path>
                </g>
            </g>
        </g>
    </g>
</svg>