<?xml version="1.0" encoding="UTF-8"?>
<svg width="76px" height="75px" viewBox="0 0 76 75" version="1.1" xmlns="http://www.w3.org/2000/svg" xmlns:xlink="http://www.w3.org/1999/xlink">
    <title>Group 8 Copy 2</title>
    <defs>
        <filter id="filter-1">
            <feColorMatrix in="SourceGraphic" type="matrix" values="0 0 0 0 0.000000 0 0 0 0 0.219608 0 0 0 0 0.388235 0 0 0 1.000000 0"></feColorMatrix>
        </filter>
    </defs>
    <g id="Page-1" stroke="none" stroke-width="1" fill="none" fill-rule="evenodd">
        <g id="HD_Koncepcjazywienia" transform="translate(-985.000000, -2507.000000)">
            <g id="Group-12" transform="translate(586.000000, 2507.000000)">
                <g id="Group-8-Copy-2" transform="translate(399.500000, 0.000000)">
                    <circle id="Oval-Copy" fill="#FFFFFF" cx="37.5" cy="37.3607479" r="37.3607479"></circle>
                    <g filter="url(#filter-1)" id="vitamin">
                        <g transform="translate(19.500000, 19.360748)">
                            <path d="M28.7014922,17.9118281 C28.0680469,17.9118281 27.4587891,18.0162422 26.8883437,18.2061563 L24.0423047,13.2687422 C23.8968281,13.0163203 23.5743047,12.9297656 23.3220938,13.0751719 C23.0697422,13.2205781 22.9831172,13.5431016 23.1285234,13.7953828 L25.9167656,18.6326016 C24.1470703,19.6153594 22.9463437,21.5031797 22.9463437,23.6669063 C22.9463437,26.2447734 24.6500156,28.432125 26.9905078,29.1623906 C26.8711172,29.4138984 26.7421641,29.6626641 26.6008359,29.9073516 C24.778125,33.0619922 21.5147109,34.9453125 17.8713281,34.9453125 C14.2279453,34.9453125 10.9646016,33.0619922 9.14189063,29.9074219 C7.31917969,26.7528516 7.31714063,22.9850156 9.13661719,19.8284766 L17.8469297,4.71733594 C17.8507969,4.71072656 17.8550859,4.70327344 17.8713984,4.70327344 C17.8877109,4.70327344 17.8920703,4.71079687 17.8958672,4.71740625 L21.8996016,11.6632969 C22.0450078,11.9156484 22.3674609,12.0021328 22.6198125,11.8568672 C22.8721641,11.7114609 22.9587891,11.3889375 22.8133828,11.1366562 L18.8096484,4.19076562 C18.6139688,3.85122656 18.2631797,3.64858594 17.8713281,3.64858594 C17.4794766,3.64858594 17.1286875,3.85136719 16.9331484,4.19076562 L8.22276563,19.3018359 C6.21302344,22.7885625 6.21520313,26.9505 8.22867188,30.4351172 C10.2421406,33.9197344 13.8469219,36 17.8713984,36 C21.8958047,36 25.5005859,33.9196641 27.5140547,30.4350469 C27.7128281,30.0910078 27.8909297,29.7401484 28.0501172,29.3841563 C28.2640781,29.4084141 28.4812031,29.4220547 28.7015625,29.4220547 C29.8232578,29.4220547 30.9115547,29.0979141 31.8486094,28.4845781 C32.0923125,28.3250391 32.1605859,27.9982266 32.0010469,27.7545234 C31.8415078,27.5108203 31.5146953,27.4426172 31.2709922,27.6020859 C30.5060625,28.1027109 29.6175234,28.3673672 28.7015625,28.3673672 C26.1097734,28.3673672 24.0011016,26.2587656 24.0011016,23.6669063 C24.0011016,21.0750469 26.1097031,18.9664453 28.7015625,18.9664453 C31.2934219,18.9664453 33.4020234,21.0750469 33.4020234,23.6669063 C33.4020234,24.4802109 33.1896797,25.2830391 32.7880547,25.9885547 C32.6439141,26.2416797 32.7322969,26.5636406 32.9854219,26.7077813 C33.2386875,26.8518516 33.5605078,26.7634688 33.7046484,26.5104141 C34.1966953,25.6462031 34.4567812,24.6629531 34.4567812,23.6669766 C34.4567812,20.4935625 31.8749063,17.9118281 28.7014922,17.9118281 Z" id="Path" fill="#000000" fill-rule="nonzero"></path>
                            <path d="M30.8718281,21.9282187 L28.4104687,24.3896484 L26.7665625,22.7458125 C26.5606875,22.5399375 26.2267734,22.5398672 26.0208281,22.7458828 C25.8148828,22.9518281 25.8148828,23.2856719 26.0208984,23.4916172 L28.0376719,25.5083203 C28.1406094,25.6112578 28.2756094,25.6627266 28.4105391,25.6627266 C28.5454687,25.6627266 28.6804687,25.6112578 28.7834766,25.5083203 L31.6177734,22.6740234 C31.8237187,22.4680078 31.8237187,22.1341641 31.6177734,21.9282187 C31.4116172,21.7223437 31.0777734,21.7223437 30.8718281,21.9282187 L30.8718281,21.9282187 Z" id="Path" fill="#000000" fill-rule="nonzero"></path>
                            <path d="M34.6352344,10.0067344 C32.0874609,9.40148438 31.406625,8.72064844 30.8013047,6.172875 C30.7090547,5.78467969 30.3654375,5.51341406 29.9654297,5.51341406 C29.9653594,5.51341406 29.9653594,5.51341406 29.9652891,5.51341406 C29.5653516,5.51341406 29.2215937,5.78446875 29.1292734,6.17273438 L29.1292734,6.17280469 C28.5240234,8.72064844 27.8432578,9.40148438 25.2953437,10.0067344 C24.9071484,10.0990547 24.6359531,10.4428125 24.6359531,10.8428906 C24.6359531,11.2428281 24.9071484,11.5865859 25.2954141,11.6787656 C27.8431875,12.2840156 28.5240234,12.9648516 29.1292734,15.5127656 C29.2215937,15.9009609 29.5653516,16.172086 29.9654297,16.172086 C30.3653672,16.172086 30.7090547,15.9008906 30.8013047,15.5126953 C31.406625,12.9648516 32.0874609,12.2840156 34.6351641,11.6787656 C35.0234297,11.5865859 35.2946953,11.2428984 35.2946953,10.8428906 C35.2946953,10.4428828 35.0235,10.0990547 34.6352344,10.0067344 L34.6352344,10.0067344 Z M29.9652891,14.5449141 C29.3380312,12.3968672 28.4111719,11.4700078 26.2631953,10.84275 C28.4111719,10.2154922 29.3381016,9.2885625 29.9652891,7.14058594 C30.5925469,9.28863281 31.5194766,10.2155625 33.6674531,10.84275 C31.5195469,11.4700078 30.5926172,12.3969375 29.9652891,14.5449141 Z" id="Shape" fill="#000000" fill-rule="nonzero"></path>
                            <path d="M5.33186719,15.1965703 C6.89491406,15.1965703 8.31649219,14.5528594 9.33461719,13.3839844 C10.355625,12.2116641 10.8206719,10.6695703 10.6105078,9.15278906 C10.5706406,8.86429687 10.3042266,8.66264062 10.0158047,8.70285937 C9.72724219,8.74279687 9.52586719,9.00907031 9.565875,9.2975625 C9.73420313,10.5120703 9.36,11.7490078 8.5393125,12.6912656 C7.72453125,13.6267734 6.58546875,14.1419531 5.3319375,14.1419531 C3.790125,14.1419531 2.4091875,13.3449609 1.63778906,12.0100078 C0.866320313,10.6749844 0.865546875,9.0804375 1.63553906,7.74457031 L5.33200781,1.33171875 L8.71565625,7.20189844 C8.8610625,7.45425 9.18358594,7.54073437 9.43586719,7.39546875 C9.68821875,7.2500625 9.77484375,6.92753906 9.6294375,6.67525781 L6.00623438,0.389601562 C5.86764844,0.149273438 5.60932031,0 5.3319375,0 C5.05455469,0 4.79615625,0.149273438 4.6575,0.389671875 L0.721617188,7.21778906 C-0.238710937,8.88377344 -0.23765625,10.8725625 0.724429688,12.5374922 C1.68658594,14.2025625 3.40896094,15.1965703 5.33186719,15.1965703 L5.33186719,15.1965703 Z" id="Path" fill="#000000" fill-rule="nonzero"></path>
                            <path d="M22.561875,3.82267969 L23.5575703,3.82267969 L23.5575703,4.81830469 C23.5575703,5.10960937 23.7936094,5.34564844 24.0849141,5.34564844 C24.3762187,5.34564844 24.6122578,5.10960937 24.6122578,4.81830469 L24.6122578,3.82267969 L25.6078828,3.82267969 C25.8991875,3.82267969 26.1352266,3.58664063 26.1352266,3.29533594 C26.1352266,3.00403125 25.8991875,2.76799219 25.6078828,2.76799219 L24.6122578,2.76799219 L24.6122578,1.77229687 C24.6122578,1.48099219 24.3762187,1.24495313 24.0849141,1.24495313 C23.7936094,1.24495313 23.5575703,1.48099219 23.5575703,1.77229687 L23.5575703,2.76799219 L22.561875,2.76799219 C22.2705703,2.76799219 22.0345313,3.00403125 22.0345313,3.29533594 C22.0345313,3.58664063 22.2705703,3.82267969 22.561875,3.82267969 Z" id="Path" fill="#000000" fill-rule="nonzero"></path>
                            <path d="M5.7436875,18.8789062 L4.44290625,18.8789062 L4.44290625,17.578125 C4.44290625,17.2868203 4.20686719,17.0507812 3.9155625,17.0507812 C3.62425781,17.0507812 3.38821875,17.2868203 3.38821875,17.578125 L3.38821875,18.8789062 L2.0874375,18.8789062 C1.79613281,18.8789062 1.56009375,19.1149453 1.56009375,19.40625 C1.56009375,19.6975547 1.79613281,19.9335938 2.0874375,19.9335938 L3.38821875,19.9335938 L3.38821875,21.234375 C3.38821875,21.5256797 3.62425781,21.7617188 3.9155625,21.7617188 C4.20686719,21.7617188 4.44290625,21.5256797 4.44290625,21.234375 L4.44290625,19.9335938 L5.7436875,19.9335938 C6.03499219,19.9335938 6.27103125,19.6975547 6.27103125,19.40625 C6.27103125,19.1149453 6.03492187,18.8789062 5.7436875,18.8789062 Z" id="Path" fill="#000000" fill-rule="nonzero"></path>
                        </g>
                    </g>
                </g>
            </g>
        </g>
    </g>
</svg>