<?xml version="1.0" encoding="UTF-8"?>
<svg width="75px" height="75px" viewBox="0 0 75 75" version="1.1" xmlns="http://www.w3.org/2000/svg" xmlns:xlink="http://www.w3.org/1999/xlink">
    <title>Group 8 Copy 2</title>
    <defs>
        <filter id="filter-1">
            <feColorMatrix in="SourceGraphic" type="matrix" values="0 0 0 0 0.000000 0 0 0 0 0.219608 0 0 0 0 0.388235 0 0 0 1.000000 0"></feColorMatrix>
        </filter>
    </defs>
    <g id="Page-1" stroke="none" stroke-width="1" fill="none" fill-rule="evenodd">
        <g id="HD_Koncepcjazywienia" transform="translate(-1179.000000, -2311.000000)">
            <g id="Group-8-Copy-2" transform="translate(1179.000000, 2311.000000)">
                <circle id="Oval-Copy" fill="#FFFFFF" cx="37.5" cy="37.3607479" r="37.3607479"></circle>
                <g filter="url(#filter-1)" id="flax-seed">
                    <g transform="translate(16.000000, 17.860748)">
                        <path d="M10.7205753,24.0282543 C10.4963916,23.908637 10.2464812,23.8453335 9.99238625,23.8438008 C9.49230941,23.8535907 9.02492174,24.094289 8.7265255,24.495702 C8.296827,25.0147398 6.67738225,26.0699285 5.70826025,26.70129 C5.5867735,26.7805038 5.451446,26.860834 5.308226,26.945765 C4.188261,27.6106985 2.6545365,28.5213775 1.602601,32.0421833 C0.574651,35.4837368 2.2352715,37.424695 3.37870225,38.0289333 C3.87170477,38.2822078 4.41911588,38.4112133 4.97333375,38.4047318 L4.9735455,38.4047318 C5.99600925,38.4047318 7.54959975,37.992339 9.144751,36.0283193 C11.4615061,33.1757003 11.3498385,31.3954025 11.2681415,30.0954693 C11.2578043,29.9292648 11.2478713,29.7723195 11.2448875,29.6257693 C11.2206903,28.4711735 11.1803615,26.5386468 11.3669903,25.8911538 C11.7106798,24.6997905 11.0295185,24.191475 10.7205753,24.0282543 L10.7205753,24.0282543 Z M10.3497048,25.5978223 C10.136203,26.3386393 10.1505635,27.9363315 10.1863493,29.6497548 C10.189872,29.816787 10.2004018,29.9843775 10.211586,30.1618048 C10.2861413,31.3502613 10.379061,32.8292965 8.323007,35.3608833 C6.990368,37.00158 5.76608725,37.346001 4.973507,37.346001 L4.97329525,37.346001 C4.59159509,37.3514348 4.21422892,37.2646002 3.8732925,37.0928828 C3.0154355,36.639449 1.7853605,35.1292865 2.61705675,32.3451975 C3.5505085,29.2205953 4.82482,28.4640703 5.8487275,27.8560975 C6.0016495,27.765276 6.14619775,27.6794595 6.2876275,27.5872713 C7.722099,26.6526838 9.05029125,25.764585 9.54193625,25.170761 C9.64420779,25.0182437 9.8095728,24.9197243 9.99238625,24.9023968 C10.0740694,24.9039864 10.1541759,24.9251716 10.2259658,24.96417 C10.3189048,25.01345 10.4919815,25.1048875 10.3497048,25.5978223 L10.3497048,25.5978223 Z" id="Shape" fill="#000000" fill-rule="nonzero"></path>
                        <path d="M6.87300075,28.4892107 C6.71449625,28.592564 6.553624,28.6879863 6.397391,28.7806942 C5.48938775,29.3198482 4.46032125,29.9309973 3.64712425,32.6530435 L4.66159925,32.9560963 C5.35640875,30.6301957 6.12459925,30.1740285 6.93810425,29.6909305 C7.10311525,29.593025 7.2739205,29.4917507 7.45115525,29.3762507 C7.914445,29.0742375 8.40568575,28.7522042 8.85875375,28.4431262 L8.2621,27.5685025 C7.817194,27.872075 7.331555,28.1904122 6.87300075,28.4892107 L6.87300075,28.4892107 Z" id="Path" fill="#000000" fill-rule="nonzero"></path>
                        <path d="M33.1826303,19.7295175 C33.3107198,18.4426357 32.6105588,15.9860085 29.1737408,14.941465 C28.1610013,14.6113127 27.1049831,14.4328316 26.0399948,14.4118205 C24.9361401,14.4146203 23.8500986,14.6902769 22.8785288,15.2142567 C22.7285135,15.2866367 22.586872,15.3549742 22.4531038,15.4128205 C21.3927945,15.8711052 19.6180408,16.6381985 18.9476788,16.709693 C17.9403263,16.817108 17.5168263,17.5052955 17.456439,18.1134222 C17.421789,18.460981 17.4690478,19.3095787 18.6520758,19.681585 C19.2956033,19.8838255 20.8844598,20.985734 21.8336965,21.6441417 C21.9529118,21.7268012 22.0784218,21.8217615 22.211189,21.9223235 C23.0903365,22.5878152 24.2943663,23.4992835 26.9780473,23.4992835 C27.4021633,23.4992835 27.8567905,23.4760102 28.3291855,23.4301567 C31.672025,23.105775 33.033,21.2339435 33.1826303,19.7295175 L33.1826303,19.7295175 Z M28.2268718,22.3763925 C27.788376,22.418935 27.368187,22.4405527 26.9779895,22.4405527 C24.6498753,22.4405527 23.652013,21.6851635 22.850212,21.0781917 C22.7083588,20.9707767 22.5743595,20.8693292 22.4370493,20.7741572 C21.0297588,19.7981822 19.705609,18.9029417 18.9695275,18.6715375 C18.480077,18.5176915 18.4995003,18.3229585 18.509953,18.2182192 C18.536749,17.948161 18.7166403,17.7990505 19.0599063,17.7624562 C19.8267685,17.6807207 21.3012608,17.0640855 22.873774,16.384368 C23.0272158,16.3180902 23.178463,16.2450942 23.3387385,16.167767 C24.015761,15.8409982 24.7832585,15.4705705 26.0399948,15.4705705 C27.0004341,15.4940161 27.9523602,15.6569978 28.8658948,15.9544 C31.646153,16.799475 32.2252508,18.659025 32.129097,19.6246627 C32.0892303,20.0248125 31.713913,22.0380352 28.2268718,22.3763925 L28.2268718,22.3763925 Z" id="Shape" fill="#000000" fill-rule="nonzero"></path>
                        <path d="M28.5638237,16.8767253 C25.8453003,16.0504575 24.7674157,16.570785 23.8165043,17.0298013 L24.276714,17.9832922 C25.1284688,17.5721893 25.9333883,17.1839553 28.25592,17.889718 C28.9914625,18.1133645 29.5292113,18.4350127 29.810858,18.8198973 L30.6653078,18.1946765 C30.2411918,17.6151745 29.5341778,17.17177 28.5638238,16.8767253 L28.5638237,16.8767253 Z" id="Path" fill="#000000" fill-rule="nonzero"></path>
                        <path d="M25.095378,28.0200305 C25.0355105,27.887937 24.9766825,27.7421183 24.914428,27.5876948 C24.4269218,26.3799113 23.7593125,24.7257588 20.4383025,23.1524948 C19.5607626,22.7132026 18.5965714,22.4744002 17.615444,22.453354 C15.9817158,22.453354 14.8066573,23.252691 14.2516413,24.0006883 C13.3507413,25.2148435 13.0992208,27.5153918 15.355263,30.0034158 C17.8236905,32.7253658 19.6002923,32.8849483 20.897569,33.0014108 C21.0635233,33.016291 21.2201605,33.0302858 21.3640928,33.0493433 C22.5095833,33.2004943 24.4267678,33.4534008 25.038706,33.7362795 C25.3003536,33.8647881 25.5867459,33.9350596 25.87816,33.942338 L25.8782755,33.942338 C26.3150407,33.947148 26.7262425,33.7367924 26.9778548,33.3797503 C27.3422188,32.8888753 27.4915218,32.0946203 26.8182145,31.337768 C26.3701323,30.834188 25.5724508,29.0731403 25.095378,28.0200305 Z M26.127563,32.7488508 C26.0751244,32.8357755 25.9796261,32.8873763 25.8781793,32.8836008 L25.8780638,32.8836008 C25.7402564,32.8750785 25.6056904,32.8382095 25.4827843,32.7753003 C24.782604,32.4516885 23.200485,32.2237878 21.5024425,31.999737 C21.3367,31.977869 21.169302,31.9628348 20.9921828,31.9469535 C19.8061518,31.8404625 18.3301195,31.7079455 16.1395273,29.2922053 C13.78608,26.6969203 14.8621935,24.954545 15.1019523,24.6315878 C15.2405523,24.444651 16.0136708,23.5121425 17.615444,23.5121425 C18.4397171,23.5337468 19.2489667,23.7376978 19.9850228,24.1093353 C22.9321978,25.505557 23.4869635,26.8798145 23.9325818,27.9840138 C23.9991675,28.1489285 24.062038,28.304738 24.1313958,28.4579295 C24.8379863,30.0176608 25.5146045,31.465434 26.0271165,32.0416058 C26.2564995,32.299421 26.2893785,32.530729 26.127563,32.7488315 L26.127563,32.7488508 Z" id="Shape" fill="#000000" fill-rule="nonzero"></path>
                        <path d="M19.5882225,24.9950278 C18.67173,24.5608825 17.850371,24.4136777 17.1467835,24.5573598 L17.3587453,25.5947038 C17.8256733,25.499012 18.4401333,25.6226163 19.1349428,25.9518105 C21.328846,26.9913105 21.6634303,27.8197727 22.0175533,28.6969568 L22.9993033,28.3005993 C22.6039083,27.3213903 22.1558068,26.2115123 19.5882225,24.9950278 L19.5882225,24.9950278 Z" id="Path" fill="#000000" fill-rule="nonzero"></path>
                        <path d="M14.2165292,20.426175 C14.5196782,19.8953563 14.5730392,19.088993 13.8139155,18.418015 C13.308834,17.971415 12.3059282,16.318148 11.7066565,15.3300648 C11.631389,15.206037 11.5555055,15.0682648 11.475156,14.9223883 C10.8467205,13.7815948 9.985976,12.2192263 6.500956,11.054428 C5.77929439,10.8032895 5.02187471,10.6700979 4.2578305,10.6599762 C2.2893255,10.6599762 1.0052735,11.6809385 0.460075,12.6364507 C-0.28911575,13.9495895 -0.263725,16.2637475 2.27381,18.4640225 C4.635323,20.5117798 6.2971755,20.7879403 7.611296,20.7879403 C7.7969045,20.7879403 7.96873,20.7827235 8.134896,20.7776993 C8.27674925,20.7734065 8.41250025,20.7691715 8.5431885,20.7691715 L8.60346025,20.7694795 C9.7587875,20.7825503 11.6923345,20.8043798 12.3338985,21.0120295 C12.5491974,21.0850057 12.7745693,21.123923 13.0018735,21.1273755 C13.5061433,21.1396295 13.9749622,20.8689882 14.2165292,20.426175 L14.2165292,20.426175 Z M13.2969375,19.901497 C13.2439071,20.0140357 13.1257401,20.0809692 13.0019505,20.068587 C12.8853449,20.0648708 12.7699963,20.0433176 12.6599165,20.004677 C11.9260295,19.7671898 10.328087,19.730172 8.6154915,19.7108258 L8.543227,19.7104215 C8.4022015,19.7104215 8.25580525,19.714772 8.10276775,19.7194305 C7.944475,19.724243 7.78090775,19.7292095 7.61145,19.7292095 L7.6112575,19.7292095 C6.49254375,19.7292095 5.065907,19.483849 2.96732975,17.6641273 C0.3203585,15.368892 1.1803715,13.5104008 1.379609,13.1611865 C1.7592575,12.4958103 2.740892,11.7187455 4.25777275,11.7187455 C4.90771651,11.7290206 5.55177652,11.8437725 6.1652745,12.0586043 C9.25819125,13.0923293 9.97325175,14.3902798 10.5478257,15.433264 C10.6336422,15.5890735 10.714704,15.736259 10.80156,15.879402 C11.6898127,17.3437495 12.5348492,18.700451 13.112715,19.2112498 C13.3713772,19.4399205 13.4316682,19.665569 13.2969375,19.901497 L13.2969375,19.901497 Z" id="Shape" fill="#000000" fill-rule="nonzero"></path>
                        <path d="M5.87741,12.9854147 C4.91523725,12.6639397 4.08217425,12.6160457 3.400936,12.8429647 L3.73552025,13.8474297 C4.05097,13.742267 4.6205775,13.6816872 5.5418055,13.9894947 C7.84427875,14.7591482 8.275421,15.54168 8.7318,16.3702385 L9.6592265,15.8593627 C9.149525,14.9344773 8.57215975,13.88618 5.87741,12.9854147 L5.87741,12.9854147 Z" id="Path" fill="#000000" fill-rule="nonzero"></path>
                        <path d="M41.3435715,20.41424 C40.6386323,19.8734675 39.7711278,19.5877649 38.8828055,19.603815 C37.6226427,19.603815 36.3639237,20.120947 35.141414,21.1408698 C32.3194795,23.495241 32.087055,25.2638925 31.9172892,26.5553365 C31.8955752,26.720309 31.8751125,26.8761185 31.8499142,27.0211865 C31.6516392,28.1587268 31.3199232,30.0626865 31.0123275,30.662093 C30.5498462,31.5631278 30.8929775,32.294724 31.3684525,32.6790503 C31.6092401,32.8797996 31.9120955,32.9910084 32.225578,32.9937878 C32.6372219,32.9764978 33.0298155,32.8156068 33.3352057,32.539045 C33.857131,32.1119838 35.6499797,31.3874523 36.721146,30.954539 C36.855665,30.9001963 37.003813,30.8473743 37.160662,30.7914915 C38.3876377,30.3541893 40.0679895,29.755341 41.776812,26.5022065 C43.3386607,23.528967 42.5195732,21.3644778 41.3435715,20.41424 L41.3435715,20.41424 Z M40.8394332,26.0097915 C39.3230722,28.8968103 37.927043,29.3943265 36.8053262,29.7941105 C36.6377165,29.8537855 36.4794237,29.910265 36.3245575,29.972866 C34.736625,30.614584 33.2618825,31.2310653 32.6648437,31.719611 C32.5447302,31.8358098 32.3910331,31.9111731 32.2256165,31.93498 C32.1541593,31.9327559 32.0859814,31.9044797 32.033925,31.8554775 C31.8226947,31.6847685 31.7966302,31.452498 31.9541915,31.1454605 C32.3061585,30.45966 32.5990665,28.8892065 32.893322,27.200327 C32.921966,27.0358743 32.9438725,26.8694773 32.9670495,26.6933013 C33.1221275,25.512641 33.315282,24.0432693 35.8196685,21.9538358 C36.8466752,21.0970183 37.877301,20.6625458 38.8828055,20.6625458 C39.5287655,20.6481998 40.1608994,20.8507464 40.6782337,21.237832 C40.99095,21.4905075 42.4687147,22.9082893 40.8394332,26.0097915 L40.8394332,26.0097915 Z" id="Shape" fill="#000000" fill-rule="nonzero"></path>
                        <path d="M36.4253505,22.712151 C34.2439598,24.5320845 34.0877268,25.7186737 33.949916,26.7660662 L34.999657,26.903723 C35.1231073,25.96594 35.239743,25.0802282 37.103682,23.5251362 C37.84935,22.9029185 38.4017865,22.7520755 38.7339837,22.7351162 L38.6798142,21.6777137 C37.9625015,21.7144042 37.204013,22.062425 36.4253505,22.712151 L36.4253505,22.712151 Z" id="Path" fill="#000000" fill-rule="nonzero"></path>
                        <path d="M29.7913,11.605055 C30.5368717,12.4872632 31.7846375,13.9638152 32.0471497,14.5845507 C32.329605,15.2529877 32.8626182,15.6363322 33.5094375,15.6363322 C33.6145445,15.6363322 33.7193967,15.6259939 33.8225195,15.605667 C34.1652657,15.5380995 34.9638905,15.247155 34.977327,14.0073587 C34.9846612,13.3332237 35.5792745,11.4936167 35.934745,10.3937102 C35.9793087,10.2557262 36.0339017,10.1081942 36.0916902,9.952019 C36.5435262,8.73047175 37.1623367,7.057512 35.7639397,3.659194 C34.4152847,0.382074 32.2739147,0.0283044246 31.4160385,0.0283044246 C31.2148907,0.0277505761 31.014162,0.0466913821 30.8166705,0.08487325 C29.547826,0.33493075 27.3991025,1.7163685 27.3941201,5.3081105 C27.3890732,8.98282 28.5962985,10.2960165 29.477833,11.2548975 C29.5905225,11.377597 29.696975,11.4933857 29.7913,11.605055 L29.7913,11.605055 Z M31.021375,1.123738 C31.1514718,1.09882769 31.2836758,1.08657882 31.4161347,1.08714305 C32.0608942,1.08714305 33.6798385,1.3770295 34.7848847,4.062212 C36.0260285,7.07805175 35.5118417,8.467921 35.0987752,9.584729 C35.0370405,9.7515495 34.9787515,9.90907225 34.9271422,10.0688665 C34.4004622,11.6982442 33.927124,13.2246537 33.918654,13.9958665 C33.9131677,14.5087635 33.7210527,14.5465897 33.6179882,14.5669177 C33.5822657,14.5739694 33.5459456,14.5776207 33.5095337,14.5776207 C33.3739752,14.5776207 33.1758735,14.5356365 33.0225087,14.1723697 C32.7222087,13.4621602 31.7052697,12.2295057 30.5992802,10.920756 C30.4914802,10.793167 30.3777127,10.6694665 30.2573617,10.5385087 C29.4515182,9.66182525 28.448497,8.5708315 28.4530246,5.309689 C28.4569092,2.40411325 30.0693277,1.3113485 31.021375,1.123738 Z" id="Shape" fill="#000000" fill-rule="nonzero"></path>
                        <path d="M31.7234418,9.115029 C31.0833408,8.41862175 30.478679,7.76083 30.4818168,5.33315475 C30.4829525,4.564483 30.635143,3.95677975 30.9220643,3.57562975 L30.0762963,2.93883975 C29.644307,3.51248975 29.4245105,4.31752475 29.4230531,5.33161475 C29.4192168,8.17291475 30.2293338,9.054045 30.94399,9.83149475 L31.7234418,9.115029 Z" id="Path" fill="#000000" fill-rule="nonzero"></path>
                        <path d="M15.795857,14.8148 C16.7652677,14.8148 17.8137767,14.5212567 18.9119315,13.9423707 C22.1623132,12.2289282 22.7589092,10.5479027 23.1944982,9.32044575 C23.2503232,9.1634235 23.3028565,9.0151215 23.3570452,8.88050625 C23.7883992,7.80862775 24.5102935,6.01464325 24.9365847,5.49219825 C25.7204062,4.53145 25.2936145,3.79658125 25.0736832,3.52511775 C24.790588,3.16356368 24.3569965,2.95222286 23.897797,2.95196825 C23.6036872,2.95683958 23.3150491,3.03227854 23.0561677,3.171938 C22.4569922,3.48057325 20.5528015,3.81509975 19.4142217,4.015088 C19.2714445,4.04020925 19.1155195,4.0609415 18.9504122,4.08290575 C17.6592377,4.2545965 15.8909905,4.4897545 13.5411622,7.3147305 C11.2440597,10.0761237 12.0092857,12.5133085 12.823503,13.5180815 C13.4815065,14.3301042 14.5926742,14.8148 15.795857,14.8148 L15.795857,14.8148 Z M14.3549752,7.991907 C16.4405202,5.4848255 17.9095455,5.28945725 19.0899747,5.13245425 C19.2662662,5.1089885 19.4328365,5.086851 19.5981747,5.05780275 C21.284725,4.761526 22.8553902,4.4663465 23.5408827,4.11324375 C23.6501318,4.05156003 23.7723687,4.01646373 23.8977007,4.01079525 C24.0370192,4.01360071 24.167305,4.08033022 24.250996,4.19174525 C24.3171775,4.273423 24.440416,4.42547875 24.116246,4.8228565 C23.628528,5.4205305 23.0142797,6.89625475 22.3747755,8.48514975 C22.312444,8.64018925 22.2561762,8.798636 22.196636,8.96639975 C21.798469,10.0886747 21.3028007,11.4851852 18.4181112,13.0058197 C17.4738217,13.5036632 16.5914595,13.75605 15.795857,13.75605 C14.4812937,13.75605 13.8179387,13.0636082 13.6459977,12.851454 C13.0350412,12.0975662 12.4967727,10.2256 14.3549752,7.991907 L14.3549752,7.991907 Z" id="Shape" fill="#000000" fill-rule="nonzero"></path>
                        <path d="M15.9281045,9.27359125 C17.4807518,7.407246 18.3664443,7.28941675 19.3041118,7.164773 L19.16453,6.1152245 C18.1177728,6.2544405 16.9312412,6.41223275 15.1141952,8.5965495 C14.4657205,9.3761745 14.1188163,10.1350865 14.082838,10.85238 L15.140356,10.9053175 C15.1641298,10.428803 15.436575,9.86452775 15.9281045,9.27359125 L15.9281045,9.27359125 Z" id="Path" fill="#000000" fill-rule="nonzero"></path>
                    </g>
                </g>
            </g>
        </g>
    </g>
</svg>