<?xml version="1.0" encoding="UTF-8"?>
<svg width="22px" height="11px" viewBox="0 0 22 11" version="1.1" xmlns="http://www.w3.org/2000/svg" xmlns:xlink="http://www.w3.org/1999/xlink">
    <title>transfer (1)</title>
    <defs>
        <filter id="filter-1">
            <feColorMatrix in="SourceGraphic" type="matrix" values="0 0 0 0 0.000000 0 0 0 0 0.219608 0 0 0 0 0.388235 0 0 0 1.000000 0"></feColorMatrix>
        </filter>
    </defs>
    <g id="Page-1" stroke="none" stroke-width="1" fill="none" fill-rule="evenodd">
        <g id="HD_HOME" transform="translate(-598.000000, -3215.000000)">
            <g id="Group-26" transform="translate(423.500000, 2860.000000)">
                <g id="transfer-(1)" transform="translate(33.500000, 340.000000)" filter="url(#filter-1)">
                    <g transform="translate(141.000000, 15.111111)">
                        <path d="M18.7737713,7.77483056 C19.5468269,6.97834907 20.2496046,6.15844167 20.9758083,5.33853426 L21.092938,5.26825648 L21.092938,5.26825648 C21.3037713,5.12770093 21.3740491,4.87001574 21.2569194,4.63575648 L21.092938,4.3780713 C20.0621972,2.69140463 18.4926602,1.49668241 17.1808083,0.044275 C17.1105306,-0.0260027778 16.8996972,-0.00257685185 16.8059935,0.044275 C16.5951602,0.137978704 16.5248824,0.348812037 16.5483083,0.583071296 C16.6185861,1.309275 16.9465491,1.91834907 17.3916417,2.45714537 C17.8835861,3.04279352 18.3989565,3.65186759 18.9143269,4.23751574 C18.8909009,4.23751574 18.8440491,4.23751574 18.8206231,4.21408981 C17.7196046,4.14381204 16.6185861,4.05010833 15.5175676,4.05010833 C13.7606231,4.07353426 11.9802528,4.16723796 10.2233083,4.21408981 C7.06080833,3.69871944 3.82803056,3.97983056 0.618678704,3.88612685 C0.478123148,3.88612685 0.243863889,4.05010833 0.173586111,4.14381204 C0.0330305556,4.3780713 0.220437963,4.5654787 0.478123148,4.70603426 C1.36830833,5.17455278 2.46932685,5.38538611 3.57034537,5.43223796 C6.217475,5.57279352 8.88803056,5.76020093 11.5585861,5.61964537 C11.8865491,5.6430713 12.214512,5.66649722 12.542475,5.66649722 C14.5571046,5.736775 16.5717343,5.76020093 18.5863639,5.59621944 C17.7196046,6.369275 16.9231231,7.18918241 16.2203454,8.12621944 C15.9860861,8.43075648 15.9392343,8.78214537 16.2437713,9.06325648 C16.5248824,9.32094167 16.9231231,9.32094167 17.2042343,9.08668241 C17.7430306,8.66501574 18.3052528,8.24334907 18.7737713,7.77483056 Z" id="Path" fill="#000000" fill-rule="nonzero"></path>
                    </g>
                </g>
            </g>
        </g>
    </g>
</svg>