<?xml version="1.0" encoding="UTF-8"?>
<svg width="76px" height="75px" viewBox="0 0 76 75" version="1.1" xmlns="http://www.w3.org/2000/svg" xmlns:xlink="http://www.w3.org/1999/xlink">
    <title>Group 8 Copy 2</title>
    <defs>
        <filter id="filter-1">
            <feColorMatrix in="SourceGraphic" type="matrix" values="0 0 0 0 0.000000 0 0 0 0 0.219608 0 0 0 0 0.388235 0 0 0 1.000000 0"></feColorMatrix>
        </filter>
    </defs>
    <g id="Page-1" stroke="none" stroke-width="1" fill="none" fill-rule="evenodd">
        <g id="HD_Koncepcjazywienia" transform="translate(-779.000000, -2311.000000)">
            <g id="Group-8-Copy-2" transform="translate(779.500000, 2311.000000)">
                <circle id="Oval-Copy" fill="#FFFFFF" cx="37.5" cy="37.3607479" r="37.3607479"></circle>
                <g filter="url(#filter-1)" id="seaweed">
                    <g transform="translate(22.500000, 19.860748)">
                        <path d="M27.4612816,10.9969813 C26.5985388,9.66458613 24.534358,10.1049262 24.3010267,11.6753194 C23.3954092,17.7717582 12.2482208,21.4446859 12.0898472,27.8810593 C12.0426705,29.7959809 12.9654232,31.7504958 14.9017821,33.8278744 C13.0617453,33.7729686 9.88792802,33.2606603 7.93829843,29.9542087 C4.95676078,24.8979175 10.4015487,20.8456075 10.8653678,14.9931459 C11.2076358,10.674911 8.4035758,6.47859185 12.2249606,1.38868634 C12.5339789,0.976929359 13.195765,1.17606312 13.231421,1.6936213 C13.6454384,7.70730036 17.6294989,8.64799043 17.9418713,15.1021554 C17.9707461,15.7002129 17.9437671,16.3050516 17.8618095,16.8999008 C17.8177682,17.2190544 18.0408184,17.5134166 18.359972,17.5574579 C18.679636,17.6020096 18.9735606,17.3784489 19.017529,17.0592953 C19.1094033,16.3931342 19.1395176,15.715744 19.1071429,15.0457913 C18.7787289,8.25949367 14.7803039,7.2043983 14.395453,1.61355947 C14.2858601,0.0214373214 12.2507729,-0.588651345 11.2920726,0.688327597 C7.14511754,6.2118649 10.0232602,10.8502742 9.70242956,14.9011258 C9.26427696,20.4283089 3.57726186,24.8551887 6.93329639,30.5468704 C7.78116432,31.9847751 8.90655078,33.0839118 10.2886747,33.8333431 L7.45872951,33.8333431 C2.95397538,29.9014904 0.870690661,26.3302806 1.26976025,23.2170565 C1.74838126,19.4828793 5.54446421,17.8085808 5.48941259,13.6514175 C5.4636003,11.6963192 4.5736598,9.75383538 2.84438255,7.87792393 C2.5585516,7.56781193 2.83570554,7.08168057 3.24709794,7.15335706 C4.53807677,7.38107391 5.65879659,7.70044625 6.57834101,8.10272414 C6.87306772,8.23185848 7.21737736,8.09732836 7.3465117,7.80209123 C7.47564604,7.50692703 7.34104299,7.16298198 7.04587878,7.03392055 C6.04175174,6.59460129 4.83185557,6.24832293 3.44980458,6.00456455 C1.93847343,5.73710844 0.946158782,7.53988508 1.98667094,8.66862568 C3.51499154,10.3265181 4.30102666,12.0081812 4.32297439,13.6668028 C4.37109899,17.3085224 0.639400922,18.9600712 0.112582395,23.0687453 C-0.41204865,27.1630549 2.70489413,31.0165957 5.71727527,33.8333431 L0.658286181,33.8333431 C0.336143032,33.8333431 0.0749577087,34.0945284 0.0749577087,34.4166715 C0.0749577087,34.7388147 0.336143032,35 0.658286181,35 L25.8684303,35 C26.1905734,35 26.4517587,34.7388147 26.4517587,34.4166715 C26.4517587,34.0945284 26.1905734,33.8333431 25.8684303,33.8333431 L16.9429213,33.8333431 C18.0892347,29.0157061 35.0375518,22.7002275 27.4612816,10.9969813 Z M16.3448638,32.2999183 C14.8950009,24.3914426 24.0916117,24.0042583 25.9591378,18.0520475 C26.0556058,17.7447063 25.8846176,17.4173132 25.5772035,17.3209182 C25.2697894,17.2243773 24.9424692,17.3954384 24.8460742,17.7028525 C23.1771714,23.0215686 13.7028962,23.8022079 15.1738319,32.3754594 C13.8521554,30.7884413 13.2215773,29.3158286 13.2562124,27.9097883 C13.3970134,22.1911276 24.4659628,18.505002 25.4550691,11.846745 C25.5294435,11.3463221 26.1982296,11.1927609 26.481946,11.6309864 C32.965642,21.6471009 19.4361401,27.1653882 16.3448638,32.2999183 L16.3448638,32.2999183 Z" id="Shape" fill="#000000" fill-rule="nonzero"></path>
                        <path d="M14.5111707,14.9932188 C14.6919297,12.7134982 13.254827,10.8808989 13.254827,8.36099283 C13.254827,8.03884968 12.9936417,7.77766435 12.6714986,7.77766435 C12.3493554,7.77766435 12.0881701,8.03884968 12.0881701,8.36099283 C12.0881701,11.0772619 13.5020854,12.9587149 13.3482325,14.9010529 C12.9100799,20.428236 7.22306481,24.8551158 10.5790993,30.5467975 C10.7435251,30.8256285 11.1017617,30.9158257 11.3778948,30.7530041 C11.6554133,30.5893805 11.747725,30.2317272 11.5841014,29.9542087 C8.60263664,24.8979175 14.0474246,20.8456075 14.5111707,14.9932188 L14.5111707,14.9932188 Z" id="Path" fill="#000000" fill-rule="nonzero"></path>
                    </g>
                </g>
            </g>
        </g>
    </g>
</svg>