<?xml version="1.0" encoding="UTF-8"?>
<svg width="75px" height="75px" viewBox="0 0 75 75" version="1.1" xmlns="http://www.w3.org/2000/svg" xmlns:xlink="http://www.w3.org/1999/xlink">
    <title>Group 8 Copy 2</title>
    <defs>
        <filter id="filter-1">
            <feColorMatrix in="SourceGraphic" type="matrix" values="0 0 0 0 0.000000 0 0 0 0 0.219608 0 0 0 0 0.388235 0 0 0 1.000000 0"></feColorMatrix>
        </filter>
    </defs>
    <g id="Page-1" stroke="none" stroke-width="1" fill="none" fill-rule="evenodd">
        <g id="HD_Koncepcjazywienia" transform="translate(-1179.000000, -2115.000000)">
            <g id="Group-8-Copy-2" transform="translate(1179.000000, 2115.000000)">
                <circle id="Oval-Copy" fill="#FFFFFF" cx="37.5" cy="37.3607479" r="37.3607479"></circle>
                <g filter="url(#filter-1)" id="leaves">
                    <g transform="translate(20.500000, 20.360748)">
                        <path d="M30.1612903,16.4516129 L34,16.4516129 L34,15.9032258 C34,13.7864516 32.2775161,12.0645161 30.1612903,12.0645161 L29.0074839,12.0645161 C29.740129,11.0132581 30.1612903,9.92087097 30.1612903,8.77419355 L30.1612903,7.67741935 L30.1612903,6.03225806 C30.1612903,2.70629032 27.455,0 24.1290323,0 L23.5806452,0 L23.5806452,2.74193548 C23.5806452,5.88309677 25.9946452,8.46819355 29.0645161,8.74622581 L29.0645161,8.77419355 C29.0645161,10.9924194 27.0453548,13.0872581 24.1290323,15.1075161 L24.1290323,14.2580645 C24.1290323,10.9320968 21.4227419,8.22580645 18.0967742,8.22580645 L17.5483871,8.22580645 L17.5483871,10.9677419 C17.5483871,13.5906774 19.2741613,15.8719677 21.6700645,16.6813871 C19.8620323,17.765 17.8746774,18.8294194 15.8884194,19.882871 C15.7962903,18.4214194 15.2166452,16.9764194 14.3496452,15.5857097 C14.9775484,14.7576452 15.3548387,13.7294194 15.3548387,12.6129032 L15.3548387,12.0645161 C15.3548387,8.45722581 12.9594839,5.60232258 8.4276129,3.80854839 C5.1,2.49132258 1.82832258,2.20670968 1.64516129,2.19354839 L-3.89652468e-15,2.19354839 L-3.89652468e-15,3.83870968 C-3.89652468e-15,13.0636774 3.40822581,17.5483871 10.4193548,17.5483871 C11.6175806,17.5483871 12.7165484,17.1184516 13.5725806,16.4060968 C14.3326452,17.687129 14.8064516,18.996129 14.8064516,20.2903226 L14.8064516,20.4564839 C11.5572581,22.1795161 8.42596774,23.8636129 6.03225806,25.6151613 L6.03225806,25.2258065 C6.03225806,23.1095806 4.30977419,21.3870968 2.19354839,21.3870968 L1.64516129,21.3870968 L1.64516129,24.1290323 C1.64516129,25.5893871 2.49735484,26.8978387 3.75754839,27.5416452 C2.43483871,28.890129 1.64516129,30.2972903 1.64516129,31.8064516 L2.74193548,31.8064516 C2.74193548,29.5904194 5.10712903,27.4429355 8.381,25.347 C9.22825806,30.2638387 13.5742258,34 18.6451613,34 L23.5806452,34 L23.5806452,33.4516129 C23.5806452,27.7061613 18.9067419,23.0322581 13.1612903,23.0322581 L12.3304839,23.0322581 C13.4760645,22.4027097 14.6556452,21.7775484 15.8280968,21.1562258 C16.8146452,20.6336129 17.8050323,20.1082581 18.7806129,19.5785161 C19.4858387,23.4199677 22.8902258,26.3225806 26.8709677,26.3225806 L32.9032258,26.3225806 L32.9032258,25.7741935 C32.9032258,21.2384839 29.213129,17.5483871 24.6774194,17.5483871 L22.3506129,17.5483871 C24.0193548,16.5399032 25.5427742,15.5056452 26.7936452,14.4324516 C27.4544516,15.6482258 28.7393226,16.4516129 30.1612903,16.4516129 L30.1612903,16.4516129 Z M24.6774194,2.74193548 L24.6774194,1.12693548 C27.141871,1.40058065 29.0645161,3.49596774 29.0645161,6.03225806 L29.0645161,7.64725806 C26.6000645,7.3736129 24.6774194,5.27822581 24.6774194,2.74193548 Z M10.4193548,16.4516129 C4.05916129,16.4516129 1.09677419,12.4434516 1.09677419,3.83870968 L1.09677419,3.28922581 L1.59964516,3.28867742 C1.72577419,3.29909677 14.2580645,4.43151613 14.2580645,12.0645161 L14.2580645,12.6129032 C14.2580645,13.345 14.0480323,14.0277419 13.6910323,14.6106774 C12.9973226,13.6570323 12.1879032,12.7335484 11.3269355,11.8544839 L11.5155806,8.25432258 L10.4199032,8.19729032 L10.2817097,10.8295484 C9.4136129,10.0080645 8.52522581,9.23264516 7.67741935,8.51645161 L7.67741935,6.03225806 L6.58064516,6.03225806 L6.58064516,7.59954839 C6.45670968,7.497 6.33441935,7.39554839 6.21432258,7.29629032 C5.16525806,6.42764516 4.25932258,5.67745161 3.67803226,5.09670968 L2.9026129,5.87212903 C3.52009677,6.4896129 4.44467742,7.2546129 5.51512903,8.14135484 C5.54912903,8.16932258 5.58367742,8.1983871 5.61767742,8.22635484 L2.74193548,8.22635484 L2.74193548,9.32312903 L6.93270968,9.32312903 C7.74048387,10.0047742 8.58664516,10.7407097 9.41306452,11.5166774 L4.38709677,11.5166774 L4.38709677,12.6134516 L10.5367097,12.6134516 C11.4377097,13.5309032 12.2761935,14.4916774 12.9682581,15.4760323 C12.2893548,16.0803548 11.3976774,16.4516129 10.4193548,16.4516129 L10.4193548,16.4516129 Z M28.1207419,13.1612903 L30.1612903,13.1612903 C31.4856452,13.1612903 32.5933871,14.1050645 32.8478387,15.3548387 L30.1612903,15.3548387 C29.0497097,15.3548387 28.0560323,14.6693548 27.6359677,13.6614194 C27.804871,13.4958065 27.9660968,13.3290968 28.1207419,13.1612903 L28.1207419,13.1612903 Z M18.6451613,10.9677419 L18.6451613,9.35274194 C21.1096129,9.6263871 23.0322581,11.7217742 23.0322581,14.2580645 L23.0322581,15.8374194 C23.0174516,15.8467419 23.0026452,15.8566129 22.9878387,15.8659355 C20.5387419,15.5709032 18.6451613,13.4546774 18.6451613,10.9677419 Z M2.74193548,24.1290323 L2.74193548,22.5392581 C3.99170968,22.7942581 4.93548387,23.9014516 4.93548387,25.2258065 L4.93548387,26.4651613 C4.83129032,26.5512581 4.73203226,26.6384516 4.63167742,26.7250968 C3.52503226,26.3604194 2.74193548,25.3135484 2.74193548,24.1290323 L2.74193548,24.1290323 Z M13.1612903,24.1290323 C18.1176129,24.1290323 22.1828065,28.0170968 22.4679677,32.9032258 L18.6451613,32.9032258 C14.1774516,32.9032258 10.3392903,29.6622581 9.49806452,25.364 C10.3041935,26.3066774 11.4207097,27.0365806 12.6814516,27.6973871 L13.7486129,30.3647419 L14.7669677,29.9578387 L14.1555161,28.4289355 C14.3671935,28.5292903 14.5777742,28.6290968 14.7921935,28.73 C15.1733226,28.9087742 15.5566452,29.0908387 15.938871,29.2750968 L16.4680645,31.3907742 L17.5313871,31.1253548 L17.2330645,29.9309677 C18.4197742,30.566 19.5395806,31.2832903 20.4504516,32.1941613 L21.225871,31.4187419 C20.2354839,30.4283548 19.0542581,29.665 17.8127097,28.9970645 L18.8897419,28.4585484 L18.3989355,27.4774839 L16.599129,28.3768387 C16.1521935,28.1585806 15.7036129,27.9463548 15.2572258,27.736871 C14.9632903,27.5986774 14.6715484,27.4615806 14.3841935,27.3244839 L16.1845484,26.2447097 L15.6202581,25.3042258 L13.2227097,26.7426452 C11.8989032,26.0505806 10.7615484,25.2949032 10.0672903,24.3143871 C10.1725806,24.2524194 10.277871,24.191 10.3842581,24.1290323 L13.1612903,24.1290323 Z M31.7856129,25.2258065 L26.8709677,25.2258065 C23.4325806,25.2258065 20.4926774,22.7279032 19.8675161,19.4167419 C21.1013871,20.3906774 22.6725161,20.9752581 24.3253548,21.5845161 C26.2841935,22.3067419 28.3110323,23.0541935 29.7735806,24.5167419 L30.549,23.7413226 C28.9159032,22.1082258 26.775,21.3190968 24.7048387,20.5557419 C23.1945806,19.999129 21.7594516,19.4628065 20.6681613,18.6451613 L24.6774194,18.6451613 C28.424,18.6451613 31.5042903,21.5499677 31.7856129,25.2258065 Z" id="Shape" fill="#000000" fill-rule="nonzero"></path>
                    </g>
                </g>
            </g>
        </g>
    </g>
</svg>